<svg width="25" height="24" viewBox="0 0 25 24" fill="none" xmlns="http://www.w3.org/2000/svg">
<path d="M12.725 1.97852C11.4253 1.97852 10.1383 2.2345 8.9376 2.73187C7.73686 3.22923 6.64584 3.95822 5.72684 4.87723C3.87082 6.73324 2.82813 9.25054 2.82812 11.8753C2.82813 16.2497 5.66851 19.961 9.59755 21.2773C10.0924 21.3565 10.2507 21.0497 10.2507 20.7825V19.1099C7.50932 19.7037 6.92541 17.7837 6.92541 17.7837C6.47016 16.6357 5.82686 16.3289 5.82686 16.3289C4.92625 15.7153 5.89614 15.7351 5.89614 15.7351C6.88582 15.8044 7.41036 16.7545 7.41036 16.7545C8.27138 18.2588 9.72621 17.8134 10.2903 17.5759C10.3794 16.9326 10.6367 16.4972 10.9138 16.2497C8.71674 16.0023 6.41078 15.1512 6.41078 11.3805C6.41078 10.282 6.78686 9.40113 7.43015 8.69846C7.33118 8.45104 6.98479 7.42177 7.52912 6.0857C7.52912 6.0857 8.36045 5.81848 10.2507 7.09517C11.0326 6.87744 11.8837 6.76858 12.725 6.76858C13.5662 6.76858 14.4173 6.87744 15.1992 7.09517C17.0895 5.81848 17.9208 6.0857 17.9208 6.0857C18.4651 7.42177 18.1187 8.45104 18.0198 8.69846C18.663 9.40113 19.0391 10.282 19.0391 11.3805C19.0391 15.1611 16.7233 15.9924 14.5163 16.2398C14.8726 16.5466 15.1992 17.1503 15.1992 18.0708V20.7825C15.1992 21.0497 15.3575 21.3664 15.8622 21.2773C19.7913 19.9511 22.6218 16.2497 22.6218 11.8753C22.6218 10.5757 22.3658 9.28873 21.8684 8.08799C21.3711 6.88725 20.6421 5.79623 19.7231 4.87723C18.8041 3.95822 17.713 3.22923 16.5123 2.73187C15.3116 2.2345 14.0246 1.97852 12.725 1.97852Z" fill="white"/>
</svg>
