<svg width="29" height="29" viewBox="0 0 29 29" fill="none" xmlns="http://www.w3.org/2000/svg">
<path d="M14.5013 2.41602C12.9145 2.41602 11.3432 2.72856 9.87721 3.3358C8.41119 3.94305 7.07914 4.8331 5.9571 5.95514C3.69103 8.22121 2.41797 11.2947 2.41797 14.4993C2.41797 19.8402 5.88589 24.3714 10.683 25.9785C11.2871 26.0752 11.4805 25.7006 11.4805 25.3743V23.3323C8.13339 24.0573 7.42047 21.7131 7.42047 21.7131C6.86464 20.3114 6.07922 19.9368 6.07922 19.9368C4.97964 19.1877 6.1638 19.2118 6.1638 19.2118C7.37214 19.2964 8.01255 20.4564 8.01255 20.4564C9.0638 22.2931 10.8401 21.7493 11.5288 21.4594C11.6376 20.6739 11.9517 20.1423 12.2901 19.8402C9.60755 19.5381 6.79214 18.4989 6.79214 13.8952C6.79214 12.5539 7.2513 11.4785 8.03672 10.6206C7.91589 10.3185 7.49297 9.06185 8.15755 7.4306C8.15755 7.4306 9.17255 7.10435 11.4805 8.6631C12.4351 8.39727 13.4742 8.26435 14.5013 8.26435C15.5284 8.26435 16.5676 8.39727 17.5221 8.6631C19.8301 7.10435 20.8451 7.4306 20.8451 7.4306C21.5096 9.06185 21.0867 10.3185 20.9659 10.6206C21.7513 11.4785 22.2105 12.5539 22.2105 13.8952C22.2105 18.511 19.383 19.526 16.6884 19.8281C17.1234 20.2027 17.5221 20.9398 17.5221 22.0635V25.3743C17.5221 25.7006 17.7155 26.0873 18.3317 25.9785C23.1288 24.3594 26.5846 19.8402 26.5846 14.4993C26.5846 12.9125 26.2721 11.3413 25.6648 9.87526C25.0576 8.40924 24.1676 7.07718 23.0455 5.95514C21.9235 4.8331 20.5914 3.94305 19.1254 3.3358C17.6594 2.72856 16.0881 2.41602 14.5013 2.41602Z" fill="#1A1B1F"/>
</svg>
