<svg width="29" height="29" viewBox="0 0 29 29" fill="none" xmlns="http://www.w3.org/2000/svg">
<path d="M25.375 22.3542C25.375 23.1553 25.0567 23.9237 24.4902 24.4902C23.9237 25.0567 23.1553 25.375 22.3542 25.375H6.64583C5.84466 25.375 5.0763 25.0567 4.50978 24.4902C3.94327 23.9237 3.625 23.1553 3.625 22.3542V6.64583C3.625 5.84466 3.94327 5.0763 4.50978 4.50978C5.0763 3.94327 5.84466 3.625 6.64583 3.625H22.3542C23.1553 3.625 23.9237 3.94327 24.4902 4.50978C25.0567 5.0763 25.375 5.84466 25.375 6.64583V22.3542Z" fill="#1a1b1f333"/>
<path d="M19.9731 15.8726C19.8707 15.841 19.7631 15.8299 19.6564 15.84C19.5497 15.8501 19.4461 15.8812 19.3514 15.9314C19.2568 15.9817 19.173 16.0501 19.1049 16.1328C19.0367 16.2155 18.9856 16.3108 18.9544 16.4133C18.4566 18.0192 17.5552 19.6873 17.1462 19.7786C16.8398 19.7786 16.3994 19.5188 15.9632 18.9086C16.9746 16.7372 17.5044 14.0112 17.5044 12.1914C17.5044 7.10858 16.2212 6.04102 15.1433 6.04102C12.8735 6.04102 12.8475 12.0295 12.8475 12.0899C12.8475 12.7944 12.8729 13.4481 12.9206 14.0571C12.5782 13.9306 12.2162 13.8654 11.8512 13.8644C9.51916 13.8644 8.45703 16.1656 8.45703 18.3032C8.45703 20.3175 9.58743 22.3535 12.1098 22.3535C13.3012 22.3535 14.3054 21.5735 15.1156 20.4075C15.8333 21.1536 16.5849 21.4322 17.1456 21.4322C18.9115 21.4322 20.0806 18.2706 20.5023 16.9094C20.5675 16.7017 20.5486 16.4767 20.4496 16.2828C20.3506 16.0889 20.1795 15.9416 19.9731 15.8726ZM12.111 20.7005C10.2798 20.7005 10.081 19.024 10.081 18.3026C10.081 18.189 10.1016 15.5168 11.8524 15.5168C12.5436 15.5168 13.0741 16.0515 13.0741 16.0515C13.1133 16.0937 13.1568 16.1306 13.2022 16.1626C13.4287 17.313 13.7483 18.2325 14.1181 18.9611C13.5115 20.0112 12.8088 20.7005 12.111 20.7005ZM15.0431 16.8713C14.7053 15.7053 14.4715 14.1399 14.4715 12.0899C14.4715 10.2013 14.8739 8.42385 15.208 7.81666C15.4642 8.20574 15.8816 9.4177 15.8816 12.1914C15.8816 13.6632 15.556 15.373 15.0431 16.8713Z" fill="white"/>
</svg>
