<svg width="17" height="17" viewBox="0 0 17 17" fill="none" xmlns="http://www.w3.org/2000/svg">
<g clip-path="url(#clip0_319_854)">
<path d="M0 1.26899C0 0.620917 0.538524 0.0957031 1.20298 0.0957031H15.178C15.8424 0.0957031 16.381 0.620917 16.381 1.26899V15.3034C16.381 15.9514 15.8424 16.4767 15.178 16.4767H1.20298C0.538524 16.4767 0 15.9514 0 15.3034V1.26899ZM5.06069 13.8086V6.41158H2.60252V13.8086H5.06069ZM3.83212 5.40108C4.68905 5.40108 5.22245 4.83389 5.22245 4.12337C5.2071 3.39749 4.69007 2.84566 3.8485 2.84566C3.00693 2.84566 2.45714 3.39851 2.45714 4.12337C2.45714 4.83389 2.99055 5.40108 3.81574 5.40108H3.83212ZM8.85698 13.8086V9.67754C8.85698 9.45639 8.87336 9.23525 8.93888 9.07758C9.116 8.63632 9.52041 8.17868 10.2002 8.17868C11.0899 8.17868 11.4452 8.85644 11.4452 9.85158V13.8086H13.9033V9.56594C13.9033 7.29308 12.6911 6.23651 11.0735 6.23651C9.76919 6.23651 9.1846 6.95318 8.85698 7.45792V7.48351H8.8406C8.84603 7.47497 8.85149 7.46643 8.85698 7.45792V6.41158H6.39983C6.43055 7.10573 6.39983 13.8086 6.39983 13.8086H8.85698Z" fill="white"/>
</g>
<defs>
<clipPath id="clip0_319_854">
<rect width="16.381" height="16.381" fill="white" transform="translate(0 0.0957031)"/>
</clipPath>
</defs>
</svg>
