<svg width="60" height="60" viewBox="0 0 60 60" fill="none" xmlns="http://www.w3.org/2000/svg">
<path d="M4.16797 14.166H55.8346V45.8327H4.16797V14.166Z" fill="#D22F27"/>
<path d="M4.16797 14.166H30.8346V30.8327H4.16797V14.166Z" fill="#1E50A0"/>
<path d="M16.2708 21.2689L15.2717 18.3322L17.315 20.6664L17.9183 17.623L18.5208 20.6664L20.5642 18.3322L19.565 21.2689L22.5017 20.2689L20.1675 22.313L23.2108 22.9155L20.1675 23.5189L22.5017 25.5622L19.565 24.5622L20.5642 27.4997L18.5208 25.1655L17.9183 28.2089L17.315 25.1655L15.2717 27.4997L16.2708 24.5622L13.3342 25.5622L15.6683 23.5189L12.625 22.9155L15.6683 22.313L13.3342 20.2689L16.2708 21.2689Z" fill="white" stroke="white" stroke-linecap="round" stroke-linejoin="round"/>
<path d="M17.9153 26.3248C19.7972 26.3248 21.3228 24.7992 21.3228 22.9173C21.3228 21.0354 19.7972 19.5098 17.9153 19.5098C16.0334 19.5098 14.5078 21.0354 14.5078 22.9173C14.5078 24.7992 16.0334 26.3248 17.9153 26.3248Z" stroke="#1E50A0" stroke-miterlimit="10"/>
<path d="M4.16797 14.166H55.8346V45.8327H4.16797V14.166Z" stroke="black" stroke-width="2" stroke-linecap="round" stroke-linejoin="round"/>
</svg>
