<svg width="60" height="60" viewBox="0 0 60 60" fill="none" xmlns="http://www.w3.org/2000/svg">
<path d="M4.16797 14.166H55.8346V45.8327H4.16797V14.166Z" fill="#D22F27"/>
<path d="M20.0013 29.7917C20.8067 29.7917 21.4596 29.1387 21.4596 28.3333C21.4596 27.5279 20.8067 26.875 20.0013 26.875C19.1959 26.875 18.543 27.5279 18.543 28.3333C18.543 29.1387 19.1959 29.7917 20.0013 29.7917Z" fill="#F1B31C"/>
<path d="M20.0013 21.4577C20.8067 21.4577 21.4596 20.8048 21.4596 19.9993C21.4596 19.1939 20.8067 18.541 20.0013 18.541C19.1959 18.541 18.543 19.1939 18.543 19.9993C18.543 20.8048 19.1959 21.4577 20.0013 21.4577Z" fill="#F1B31C"/>
<path d="M23.3333 27.2917C24.1387 27.2917 24.7917 26.6387 24.7917 25.8333C24.7917 25.0279 24.1387 24.375 23.3333 24.375C22.5279 24.375 21.875 25.0279 21.875 25.8333C21.875 26.6387 22.5279 27.2917 23.3333 27.2917Z" fill="#F1B31C"/>
<path d="M23.3333 23.1257C24.1387 23.1257 24.7917 22.4727 24.7917 21.6673C24.7917 20.8619 24.1387 20.209 23.3333 20.209C22.5279 20.209 21.875 20.8619 21.875 21.6673C21.875 22.4727 22.5279 23.1257 23.3333 23.1257Z" fill="#F1B31C"/>
<path d="M11.2733 27.0378L13.3333 20.3711L15.3942 27.0378L10 22.9169H16.6667L11.2733 27.0378Z" fill="#F1B31C" stroke="#F1B31C" stroke-linecap="round" stroke-linejoin="round"/>
<path d="M4.16797 14.166H55.8346V45.8327H4.16797V14.166Z" stroke="black" stroke-width="2" stroke-linecap="round" stroke-linejoin="round"/>
</svg>
