<svg width="21" height="21" viewBox="0 0 21 21" fill="none" xmlns="http://www.w3.org/2000/svg">
<path d="M18.375 16.1875C18.375 16.7677 18.1445 17.3241 17.7343 17.7343C17.3241 18.1445 16.7677 18.375 16.1875 18.375H4.8125C4.23234 18.375 3.67594 18.1445 3.2657 17.7343C2.85547 17.3241 2.625 16.7677 2.625 16.1875V4.8125C2.625 4.23234 2.85547 3.67594 3.2657 3.2657C3.67594 2.85547 4.23234 2.625 4.8125 2.625H16.1875C16.7677 2.625 17.3241 2.85547 17.7343 3.2657C18.1445 3.67594 18.375 4.23234 18.375 4.8125V16.1875Z" fill="white"/>
<path d="M14.4642 11.4944C14.39 11.4716 14.3121 11.4635 14.2349 11.4708C14.1576 11.4781 14.0826 11.5006 14.014 11.537C13.9455 11.5734 13.8848 11.6229 13.8355 11.6828C13.7862 11.7427 13.7491 11.8118 13.7266 11.886C13.3661 13.0489 12.7133 14.2568 12.4171 14.3229C12.1953 14.3229 11.8764 14.1348 11.5605 13.6929C12.2929 12.1205 12.6766 10.1465 12.6766 8.82875C12.6766 5.14806 11.7473 4.375 10.9668 4.375C9.32312 4.375 9.30431 8.7115 9.30431 8.75525C9.30431 9.26537 9.32269 9.73875 9.35725 10.1797C9.10931 10.0882 8.84719 10.0409 8.58288 10.0402C6.89413 10.0402 6.125 11.7066 6.125 13.2545C6.125 14.7131 6.94356 16.1875 8.77012 16.1875C9.63288 16.1875 10.36 15.6227 10.9467 14.7783C11.4664 15.3186 12.0107 15.5203 12.4167 15.5203C13.6955 15.5203 14.5421 13.2309 14.8474 12.2452C14.8947 12.0948 14.881 11.9319 14.8093 11.7915C14.7376 11.6511 14.6137 11.5444 14.4642 11.4944ZM8.771 14.9905C7.44494 14.9905 7.301 13.7764 7.301 13.2541C7.301 13.1718 7.31588 11.2368 8.58375 11.2368C9.08425 11.2368 9.46838 11.6239 9.46838 11.6239C9.49681 11.6546 9.52831 11.6813 9.56113 11.7044C9.72519 12.5374 9.95663 13.2033 10.2244 13.7309C9.78513 14.4913 9.27631 14.9905 8.771 14.9905ZM10.8942 12.2176C10.6496 11.3733 10.4803 10.2397 10.4803 8.75525C10.4803 7.38762 10.7717 6.1005 11.0136 5.66081C11.1991 5.94256 11.5014 6.82019 11.5014 8.82875C11.5014 9.8945 11.2656 11.1326 10.8942 12.2176Z" fill="#333333"/>
</svg>
