<svg width="60" height="60" viewBox="0 0 60 60" fill="none" xmlns="http://www.w3.org/2000/svg">
<path d="M4.16797 14.166H55.8346V45.8327H4.16797V14.166Z" fill="white"/>
<path d="M4.16797 14.166H18.3346V45.8327H4.16797V14.166ZM41.668 14.166H55.8346V45.8327H41.668V14.166Z" fill="#D22F27"/>
<path d="M30.0013 38.3327V34.166V38.3327ZM30.0013 34.166H35.668L35.0013 32.4993L38.3346 29.166V26.666H35.8346L32.5013 29.9993V24.166L30.0013 21.666M30.0013 34.166H24.3346L25.0013 32.4993L21.668 29.166V26.666H24.168L27.5013 29.9993V24.166L30.0013 21.666" fill="#D22F27"/>
<path d="M30.0013 38.3327V34.166M30.0013 34.166H35.668L35.0013 32.4993L38.3346 29.166V26.666H35.8346L32.5013 29.9993V24.166L30.0013 21.666L27.5013 24.166V29.9993L24.168 26.666H21.668V29.166L25.0013 32.4993L24.3346 34.166H30.0013Z" stroke="#D22F27" stroke-width="2" stroke-linecap="round" stroke-linejoin="round"/>
<path d="M4.16797 14.166H55.8346V45.8327H4.16797V14.166Z" stroke="black" stroke-width="2" stroke-linecap="round" stroke-linejoin="round"/>
</svg>
