<svg width="23" height="23" viewBox="0 0 23 23" fill="none" xmlns="http://www.w3.org/2000/svg">
<path d="M3.88767 19.1112C3.36212 19.1112 2.91237 18.9242 2.53843 18.5502C2.16449 18.1763 1.9772 17.7262 1.97656 17.2V5.73338C1.97656 5.20782 2.16385 4.75807 2.53843 4.38413C2.91301 4.01019 3.36276 3.8229 3.88767 3.82227H19.1766C19.7021 3.82227 20.1522 4.00955 20.5268 4.38413C20.9013 4.75871 21.0883 5.20846 21.0877 5.73338V17.2C21.0877 17.7256 20.9007 18.1757 20.5268 18.5502C20.1528 18.9248 19.7028 19.1118 19.1766 19.1112H3.88767ZM11.5321 12.4223L3.88767 7.64449V17.2H19.1766V7.64449L11.5321 12.4223ZM11.5321 10.5112L19.1766 5.73338H3.88767L11.5321 10.5112ZM3.88767 7.64449V5.73338V17.2V7.64449Z" fill="white"/>
</svg>
