<svg width="28" height="28" viewBox="0 0 28 28" fill="none" xmlns="http://www.w3.org/2000/svg">
<path d="M4.66536 23.3327C4.0237 23.3327 3.47459 23.1044 3.01803 22.6479C2.56148 22.1913 2.33281 21.6418 2.33203 20.9993V6.99935C2.33203 6.35768 2.5607 5.80857 3.01803 5.35202C3.47536 4.89546 4.02448 4.66679 4.66536 4.66602H23.332C23.9737 4.66602 24.5232 4.89468 24.9805 5.35202C25.4379 5.80935 25.6661 6.35846 25.6654 6.99935V20.9993C25.6654 21.641 25.4371 22.1905 24.9805 22.6479C24.524 23.1052 23.9745 23.3335 23.332 23.3327H4.66536ZM13.9987 15.166L4.66536 9.33268V20.9993H23.332V9.33268L13.9987 15.166ZM13.9987 12.8327L23.332 6.99935H4.66536L13.9987 12.8327ZM4.66536 9.33268V6.99935V20.9993V9.33268Z" fill="#1A1B1F"/>
</svg>
