<svg width="193" height="96" viewBox="0 0 193 96" fill="none" xmlns="http://www.w3.org/2000/svg">
<path d="M4.8 30.7V28H33.2C41.3333 28 47.5667 30.6333 51.9 35.9C56.2333 41.1667 58.4 48.6 58.4 58.2V65.7C58.4 75.3667 56.2333 82.8333 51.9 88.1C47.5667 93.3667 41.3333 96 33.2 96H4.8V93.4L10.3 92.8C11.3667 92.6667 12 92.4 12.2 92C12.4 91.6 12.5 90.2333 12.5 87.9V36.1C12.5 33.7667 12.4 32.4 12.2 32C12 31.6 11.3667 31.3333 10.3 31.2L4.8 30.7ZM33 31.2H21.2V92.8H33C36.6 92.8 39.5667 92.1333 41.9 90.8C44.2333 89.4667 45.9667 87.2 47.1 84C48.3 80.7333 48.9 76.3 48.9 70.7V53.2C48.9 47.6667 48.3 43.3 47.1 40.1C45.9667 36.9 44.2333 34.6333 41.9 33.3C39.5667 31.9 36.6 31.2 33 31.2Z" fill="#333333"/>
<path d="M101.83 50.58C101.47 51.94 100.79 52.9 99.79 53.46C98.81 54.02 97.72 54.3 96.52 54.3C94.3 54.3 92.64 53.63 91.54 52.29C90.44 50.93 89.89 49.12 89.89 46.86V46.26C89.89 44.02 90.42 42.23 91.48 40.89C92.54 39.53 94.08 38.85 96.1 38.85C97.18 38.85 98.16 39.07 99.04 39.51C99.94 39.95 100.65 40.6 101.17 41.46C101.71 42.32 101.98 43.39 101.98 44.67C101.98 45.27 101.92 45.9 101.8 46.56H92.59V47.46C92.59 49.56 92.91 51.07 93.55 51.99C94.21 52.89 95.27 53.34 96.73 53.34C97.65 53.34 98.41 53.1 99.01 52.62C99.63 52.14 100.04 51.31 100.24 50.13L101.83 50.58ZM96.1 39.81C94.92 39.81 94.04 40.26 93.46 41.16C92.88 42.06 92.59 43.54 92.59 45.6H99.34V45.51C99.38 45.25 99.41 45 99.43 44.76C99.45 44.5 99.46 44.27 99.46 44.07C99.46 42.57 99.15 41.49 98.53 40.83C97.91 40.15 97.1 39.81 96.1 39.81ZM117.142 47.94L115.312 47.49C112.812 46.85 111.562 45.41 111.562 43.17C111.562 42.43 111.732 41.73 112.072 41.07C112.412 40.41 112.952 39.88 113.692 39.48C114.452 39.06 115.422 38.85 116.602 38.85C117.922 38.85 118.982 39.07 119.782 39.51C120.582 39.95 121.142 40.52 121.462 41.22C121.782 41.92 121.882 42.68 121.762 43.5L119.422 43.92C119.662 42.62 119.522 41.61 119.002 40.89C118.502 40.17 117.672 39.81 116.512 39.81C115.612 39.81 114.892 40.04 114.352 40.5C113.812 40.94 113.542 41.59 113.542 42.45C113.542 43.09 113.742 43.66 114.142 44.16C114.542 44.64 115.212 45 116.152 45.24L118.042 45.69C119.362 46.01 120.382 46.52 121.102 47.22C121.842 47.92 122.212 48.84 122.212 49.98C122.212 51.26 121.742 52.3 120.802 53.1C119.882 53.9 118.562 54.3 116.842 54.3C116.022 54.3 115.222 54.18 114.442 53.94C113.682 53.68 113.012 53.28 112.432 52.74C111.872 52.18 111.462 51.46 111.202 50.58L112.882 49.98C113.102 51.24 113.582 52.12 114.322 52.62C115.062 53.12 115.912 53.37 116.872 53.37C117.432 53.37 117.962 53.28 118.462 53.1C118.982 52.92 119.402 52.64 119.722 52.26C120.042 51.86 120.202 51.35 120.202 50.73C120.202 50.09 119.982 49.54 119.542 49.08C119.102 48.62 118.302 48.24 117.142 47.94ZM134.531 35.79C134.051 35.79 133.651 35.64 133.331 35.34C133.031 35.02 132.881 34.61 132.881 34.11C132.881 33.63 133.031 33.24 133.331 32.94C133.651 32.64 134.051 32.49 134.531 32.49C135.011 32.49 135.401 32.64 135.701 32.94C136.021 33.24 136.181 33.63 136.181 34.11C136.181 34.61 136.021 35.02 135.701 35.34C135.401 35.64 135.011 35.79 134.531 35.79ZM131.021 39.96V39.15H135.791V51.57C135.791 52.27 135.821 52.68 135.881 52.8C135.941 52.92 136.131 53 136.451 53.04L138.101 53.22V54H131.021V53.22L132.671 53.04C132.991 53 133.181 52.92 133.241 52.8C133.301 52.68 133.331 52.27 133.331 51.57V41.58C133.331 40.88 133.301 40.47 133.241 40.35C133.181 40.23 132.991 40.15 132.671 40.11L131.021 39.96ZM159.966 55.74C159.966 57.34 159.376 58.56 158.196 59.4C157.036 60.26 155.416 60.69 153.336 60.69C151.056 60.69 149.386 60.29 148.326 59.49C147.266 58.71 146.716 57.72 146.676 56.52L148.896 56.07C148.816 57.17 149.106 58.05 149.766 58.71C150.446 59.39 151.636 59.73 153.336 59.73C154.856 59.73 156.076 59.45 156.996 58.89C157.936 58.33 158.406 57.51 158.406 56.43C158.406 55.63 158.136 55.03 157.596 54.63C157.056 54.23 156.166 54.03 154.926 54.03H151.356C150.016 54.03 149.076 53.75 148.536 53.19C147.996 52.61 147.726 51.97 147.726 51.27C147.726 50.69 147.866 50.15 148.146 49.65C148.446 49.13 148.916 48.62 149.556 48.12C148.756 47.74 148.106 47.19 147.606 46.47C147.106 45.73 146.856 44.84 146.856 43.8C146.856 42.7 147.106 41.79 147.606 41.07C148.126 40.33 148.806 39.78 149.646 39.42C150.506 39.04 151.456 38.85 152.496 38.85H153.006C154.106 38.85 155.086 39.05 155.946 39.45L160.296 37.95L160.626 40.2H157.116C157.576 40.6 157.936 41.1 158.196 41.7C158.476 42.3 158.616 43 158.616 43.8C158.616 44.86 158.356 45.76 157.836 46.5C157.336 47.24 156.666 47.8 155.826 48.18C154.986 48.54 154.046 48.72 153.006 48.72H152.496C152.156 48.72 151.826 48.7 151.506 48.66C151.186 48.62 150.876 48.56 150.576 48.48C150.136 48.78 149.816 49.09 149.616 49.41C149.436 49.73 149.346 50.06 149.346 50.4C149.346 50.8 149.486 51.12 149.766 51.36C150.066 51.6 150.536 51.72 151.176 51.72H155.076C156.656 51.72 157.866 52.06 158.706 52.74C159.546 53.42 159.966 54.42 159.966 55.74ZM153.006 47.76C153.546 47.76 154.036 47.64 154.476 47.4C154.936 47.16 155.306 46.76 155.586 46.2C155.866 45.62 156.006 44.82 156.006 43.8C156.006 42.76 155.866 41.96 155.586 41.4C155.306 40.82 154.936 40.41 154.476 40.17C154.036 39.93 153.546 39.81 153.006 39.81H152.496C151.956 39.81 151.456 39.93 150.996 40.17C150.536 40.41 150.166 40.82 149.886 41.4C149.606 41.96 149.466 42.76 149.466 43.8C149.466 44.82 149.606 45.62 149.886 46.2C150.166 46.76 150.536 47.16 150.996 47.4C151.456 47.64 151.956 47.76 152.496 47.76H153.006ZM184.957 53.22V54H177.877V53.22L179.527 53.04C179.847 53 180.037 52.92 180.097 52.8C180.157 52.68 180.187 52.27 180.187 51.57V44.1C180.187 42.62 179.947 41.58 179.467 40.98C178.987 40.36 178.297 40.05 177.397 40.05C176.737 40.05 176.007 40.25 175.207 40.65C174.407 41.05 173.657 41.83 172.957 42.99V51.57C172.957 52.27 172.987 52.68 173.047 52.8C173.107 52.92 173.297 53 173.617 53.04L175.267 53.22V54H168.187V53.22L169.837 53.04C170.157 53 170.347 52.92 170.407 52.8C170.467 52.68 170.497 52.27 170.497 51.57V41.58C170.497 40.88 170.467 40.47 170.407 40.35C170.347 40.23 170.157 40.15 169.837 40.11L168.187 39.96V39.15H172.807V41.58C173.527 40.62 174.337 39.93 175.237 39.51C176.157 39.07 177.077 38.85 177.997 38.85C179.477 38.85 180.617 39.31 181.417 40.23C182.237 41.13 182.647 42.41 182.647 44.07V51.57C182.647 52.27 182.677 52.68 182.737 52.8C182.797 52.92 182.987 53 183.307 53.04L184.957 53.22Z" fill="#333333"/>
<path d="M22.031 18.454V19H16.97V18.454L18.125 18.328C18.349 18.3 18.482 18.244 18.524 18.16C18.566 18.062 18.587 17.775 18.587 17.299V5.917L14.219 17.32H12.791L8.402 5.917V17.299C8.402 17.775 8.423 18.062 8.465 18.16C8.507 18.244 8.64 18.3 8.864 18.328L10.019 18.454V19H6.008V18.454L7.163 18.328C7.387 18.3 7.52 18.244 7.562 18.16C7.604 18.062 7.625 17.775 7.625 17.299V6.421C7.625 5.945 7.604 5.665 7.562 5.581C7.52 5.483 7.387 5.42 7.163 5.392L6.008 5.287V4.72H9.851L14.072 15.745L18.293 4.72H22.031V5.287L20.876 5.392C20.652 5.42 20.519 5.483 20.477 5.581C20.435 5.665 20.414 5.945 20.414 6.421V17.299C20.414 17.775 20.435 18.062 20.477 18.16C20.519 18.244 20.652 18.3 20.876 18.328L22.031 18.454ZM30.2494 6.253C29.9134 6.253 29.6334 6.148 29.4094 5.938C29.1994 5.714 29.0944 5.427 29.0944 5.077C29.0944 4.741 29.1994 4.468 29.4094 4.258C29.6334 4.048 29.9134 3.943 30.2494 3.943C30.5854 3.943 30.8584 4.048 31.0684 4.258C31.2924 4.468 31.4044 4.741 31.4044 5.077C31.4044 5.427 31.2924 5.714 31.0684 5.938C30.8584 6.148 30.5854 6.253 30.2494 6.253ZM27.7924 9.172V8.605H31.1314V17.299C31.1314 17.789 31.1524 18.076 31.1944 18.16C31.2364 18.244 31.3694 18.3 31.5934 18.328L32.7484 18.454V19H27.7924V18.454L28.9474 18.328C29.1714 18.3 29.3044 18.244 29.3464 18.16C29.3884 18.076 29.4094 17.789 29.4094 17.299V10.306C29.4094 9.816 29.3884 9.529 29.3464 9.445C29.3044 9.361 29.1714 9.305 28.9474 9.277L27.7924 9.172ZM51.6502 10.18L49.2982 19H47.9332L45.1822 10.327L42.4312 19H41.1292L38.7982 10.18C38.7002 9.774 38.6162 9.529 38.5462 9.445C38.4902 9.361 38.3502 9.305 38.1262 9.277L37.0552 9.172V8.605H41.8222V9.172L40.7302 9.277C40.5062 9.305 40.3802 9.361 40.3522 9.445C40.3382 9.529 40.3872 9.774 40.4992 10.18L42.3052 17.11L44.9722 8.605H46.3372L49.0462 17.236L50.8732 10.18C50.9852 9.774 51.0272 9.529 50.9992 9.445C50.9852 9.361 50.8662 9.305 50.6422 9.277L49.5502 9.172V8.605H53.3932V9.172L52.3222 9.277C52.1122 9.305 51.9722 9.361 51.9022 9.445C51.8462 9.529 51.7622 9.774 51.6502 10.18ZM66.5113 19.147C65.4193 19.147 64.7753 18.643 64.5793 17.635C64.0893 18.195 63.5503 18.601 62.9623 18.853C62.3743 19.091 61.7933 19.21 61.2193 19.21C60.2393 19.21 59.5183 18.937 59.0563 18.391C58.5943 17.845 58.3633 17.187 58.3633 16.417C58.3633 15.591 58.6433 14.94 59.2033 14.464C59.7773 13.974 60.7643 13.729 62.1643 13.729H64.5373V12.028C64.5373 10.908 64.3413 10.138 63.9493 9.718C63.5713 9.284 63.0533 9.067 62.3953 9.067C61.9753 9.067 61.5973 9.151 61.2613 9.319C60.9253 9.487 60.6803 9.795 60.5263 10.243C60.3863 10.677 60.3723 11.314 60.4843 12.154L58.8253 11.902C58.7553 11.244 58.8393 10.656 59.0773 10.138C59.3293 9.606 59.7353 9.186 60.2953 8.878C60.8693 8.556 61.5833 8.395 62.4373 8.395C63.4593 8.395 64.2433 8.57 64.7893 8.92C65.3353 9.256 65.7133 9.697 65.9233 10.243C66.1473 10.789 66.2593 11.384 66.2593 12.028V16.753C66.2593 17.467 66.3363 17.915 66.4903 18.097C66.6583 18.279 66.8403 18.37 67.0363 18.37C67.1623 18.37 67.2953 18.342 67.4353 18.286C67.5753 18.216 67.7293 18.111 67.8973 17.971L68.2753 18.496C68.0653 18.678 67.8133 18.832 67.5193 18.958C67.2393 19.084 66.9033 19.147 66.5113 19.147ZM61.8073 18.328C62.1993 18.328 62.6193 18.223 63.0673 18.013C63.5293 17.789 64.0193 17.348 64.5373 16.69V14.401H62.3953C61.6113 14.401 61.0373 14.562 60.6733 14.884C60.3233 15.192 60.1483 15.675 60.1483 16.333C60.1483 16.963 60.2813 17.453 60.5473 17.803C60.8273 18.153 61.2473 18.328 61.8073 18.328ZM82.2109 5.266V4.72H87.2719V5.266L86.1169 5.392C85.8929 5.406 85.7599 5.462 85.7179 5.56C85.6759 5.644 85.6549 5.931 85.6549 6.421V12.595L90.9049 6.295C91.2549 5.889 91.4299 5.644 91.4299 5.56C91.4439 5.462 91.3319 5.406 91.0939 5.392L90.0229 5.266V4.72H94.0129V5.266L92.9419 5.392C92.8019 5.406 92.6899 5.434 92.6059 5.476C92.5219 5.504 92.4239 5.581 92.3119 5.707C92.2139 5.819 92.0459 6.015 91.8079 6.295L88.5319 10.243L92.5219 17.299C92.7039 17.621 92.8369 17.852 92.9209 17.992C93.0189 18.132 93.1169 18.223 93.2149 18.265C93.3129 18.293 93.4459 18.314 93.6139 18.328L94.6219 18.454V19H91.3459L87.3139 11.713L85.6549 13.687V17.299C85.6549 17.789 85.6759 18.076 85.7179 18.16C85.7599 18.244 85.8929 18.3 86.1169 18.328L87.2719 18.454V19H82.2109V18.454L83.3659 18.328C83.5899 18.3 83.7229 18.244 83.7649 18.16C83.8069 18.076 83.8279 17.789 83.8279 17.299V6.421C83.8279 5.931 83.8069 5.644 83.7649 5.56C83.7229 5.462 83.5899 5.406 83.3659 5.392L82.2109 5.266ZM108.095 19.147C107.003 19.147 106.359 18.643 106.163 17.635C105.673 18.195 105.134 18.601 104.546 18.853C103.958 19.091 103.377 19.21 102.803 19.21C101.823 19.21 101.102 18.937 100.64 18.391C100.178 17.845 99.9466 17.187 99.9466 16.417C99.9466 15.591 100.227 14.94 100.787 14.464C101.361 13.974 102.348 13.729 103.748 13.729H106.121V12.028C106.121 10.908 105.925 10.138 105.533 9.718C105.155 9.284 104.637 9.067 103.979 9.067C103.559 9.067 103.181 9.151 102.845 9.319C102.509 9.487 102.264 9.795 102.11 10.243C101.97 10.677 101.956 11.314 102.068 12.154L100.409 11.902C100.339 11.244 100.423 10.656 100.661 10.138C100.913 9.606 101.319 9.186 101.879 8.878C102.453 8.556 103.167 8.395 104.021 8.395C105.043 8.395 105.827 8.57 106.373 8.92C106.919 9.256 107.297 9.697 107.507 10.243C107.731 10.789 107.843 11.384 107.843 12.028V16.753C107.843 17.467 107.92 17.915 108.074 18.097C108.242 18.279 108.424 18.37 108.62 18.37C108.746 18.37 108.879 18.342 109.019 18.286C109.159 18.216 109.313 18.111 109.481 17.971L109.859 18.496C109.649 18.678 109.397 18.832 109.103 18.958C108.823 19.084 108.487 19.147 108.095 19.147ZM103.391 18.328C103.783 18.328 104.203 18.223 104.651 18.013C105.113 17.789 105.603 17.348 106.121 16.69V14.401H103.979C103.195 14.401 102.621 14.562 102.257 14.884C101.907 15.192 101.732 15.675 101.732 16.333C101.732 16.963 101.865 17.453 102.131 17.803C102.411 18.153 102.831 18.328 103.391 18.328ZM121.703 16.858C121.493 17.67 121.164 18.265 120.716 18.643C120.268 19.021 119.694 19.21 118.994 19.21C118.322 19.21 117.776 19.063 117.356 18.769C116.936 18.461 116.628 18.062 116.432 17.572C116.236 17.082 116.138 16.571 116.138 16.039V10.306C116.138 9.816 116.117 9.529 116.075 9.445C116.047 9.361 115.914 9.305 115.676 9.277L114.521 9.172V8.605H116.138V5.854L117.86 5.497V8.605H121.283V9.277H117.86V16.207C117.86 17.089 117.979 17.698 118.217 18.034C118.469 18.37 118.798 18.538 119.204 18.538C119.61 18.538 119.918 18.384 120.128 18.076C120.352 17.768 120.513 17.264 120.611 16.564L121.703 16.858ZM135.536 19.147C134.444 19.147 133.8 18.643 133.604 17.635C133.114 18.195 132.575 18.601 131.987 18.853C131.399 19.091 130.818 19.21 130.244 19.21C129.264 19.21 128.543 18.937 128.081 18.391C127.619 17.845 127.388 17.187 127.388 16.417C127.388 15.591 127.668 14.94 128.228 14.464C128.802 13.974 129.789 13.729 131.189 13.729H133.562V12.028C133.562 10.908 133.366 10.138 132.974 9.718C132.596 9.284 132.078 9.067 131.42 9.067C131 9.067 130.622 9.151 130.286 9.319C129.95 9.487 129.705 9.795 129.551 10.243C129.411 10.677 129.397 11.314 129.509 12.154L127.85 11.902C127.78 11.244 127.864 10.656 128.102 10.138C128.354 9.606 128.76 9.186 129.32 8.878C129.894 8.556 130.608 8.395 131.462 8.395C132.484 8.395 133.268 8.57 133.814 8.92C134.36 9.256 134.738 9.697 134.948 10.243C135.172 10.789 135.284 11.384 135.284 12.028V16.753C135.284 17.467 135.361 17.915 135.515 18.097C135.683 18.279 135.865 18.37 136.061 18.37C136.187 18.37 136.32 18.342 136.46 18.286C136.6 18.216 136.754 18.111 136.922 17.971L137.3 18.496C137.09 18.678 136.838 18.832 136.544 18.958C136.264 19.084 135.928 19.147 135.536 19.147ZM130.832 18.328C131.224 18.328 131.644 18.223 132.092 18.013C132.554 17.789 133.044 17.348 133.562 16.69V14.401H131.42C130.636 14.401 130.062 14.562 129.698 14.884C129.348 15.192 129.173 15.675 129.173 16.333C129.173 16.963 129.306 17.453 129.572 17.803C129.852 18.153 130.272 18.328 130.832 18.328ZM152.001 20.218C152.001 21.338 151.588 22.192 150.762 22.78C149.95 23.382 148.816 23.683 147.36 23.683C145.764 23.683 144.595 23.403 143.853 22.843C143.111 22.297 142.726 21.604 142.698 20.764L144.252 20.449C144.196 21.219 144.399 21.835 144.861 22.297C145.337 22.773 146.17 23.011 147.36 23.011C148.424 23.011 149.278 22.815 149.922 22.423C150.58 22.031 150.909 21.457 150.909 20.701C150.909 20.141 150.72 19.721 150.342 19.441C149.964 19.161 149.341 19.021 148.473 19.021H145.974C145.036 19.021 144.378 18.825 144 18.433C143.622 18.027 143.433 17.579 143.433 17.089C143.433 16.683 143.531 16.305 143.727 15.955C143.937 15.591 144.266 15.234 144.714 14.884C144.154 14.618 143.699 14.233 143.349 13.729C142.999 13.211 142.824 12.588 142.824 11.86C142.824 11.09 142.999 10.453 143.349 9.949C143.713 9.431 144.189 9.046 144.777 8.794C145.379 8.528 146.044 8.395 146.772 8.395H147.129C147.899 8.395 148.585 8.535 149.187 8.815L152.232 7.765L152.463 9.34H150.006C150.328 9.62 150.58 9.97 150.762 10.39C150.958 10.81 151.056 11.3 151.056 11.86C151.056 12.602 150.874 13.232 150.51 13.75C150.16 14.268 149.691 14.66 149.103 14.926C148.515 15.178 147.857 15.304 147.129 15.304H146.772C146.534 15.304 146.303 15.29 146.079 15.262C145.855 15.234 145.638 15.192 145.428 15.136C145.12 15.346 144.896 15.563 144.756 15.787C144.63 16.011 144.567 16.242 144.567 16.48C144.567 16.76 144.665 16.984 144.861 17.152C145.071 17.32 145.4 17.404 145.848 17.404H148.578C149.684 17.404 150.531 17.642 151.119 18.118C151.707 18.594 152.001 19.294 152.001 20.218ZM147.129 14.632C147.507 14.632 147.85 14.548 148.158 14.38C148.48 14.212 148.739 13.932 148.935 13.54C149.131 13.134 149.229 12.574 149.229 11.86C149.229 11.132 149.131 10.572 148.935 10.18C148.739 9.774 148.48 9.487 148.158 9.319C147.85 9.151 147.507 9.067 147.129 9.067H146.772C146.394 9.067 146.044 9.151 145.722 9.319C145.4 9.487 145.141 9.774 144.945 10.18C144.749 10.572 144.651 11.132 144.651 11.86C144.651 12.574 144.749 13.134 144.945 13.54C145.141 13.932 145.4 14.212 145.722 14.38C146.044 14.548 146.394 14.632 146.772 14.632H147.129ZM160.003 6.253C159.667 6.253 159.387 6.148 159.163 5.938C158.953 5.714 158.848 5.427 158.848 5.077C158.848 4.741 158.953 4.468 159.163 4.258C159.387 4.048 159.667 3.943 160.003 3.943C160.339 3.943 160.612 4.048 160.822 4.258C161.046 4.468 161.158 4.741 161.158 5.077C161.158 5.427 161.046 5.714 160.822 5.938C160.612 6.148 160.339 6.253 160.003 6.253ZM157.546 9.172V8.605H160.885V17.299C160.885 17.789 160.906 18.076 160.948 18.16C160.99 18.244 161.123 18.3 161.347 18.328L162.502 18.454V19H157.546V18.454L158.701 18.328C158.925 18.3 159.058 18.244 159.1 18.16C159.142 18.076 159.163 17.789 159.163 17.299V10.306C159.163 9.816 159.142 9.529 159.1 9.445C159.058 9.361 158.925 9.305 158.701 9.277L157.546 9.172ZM167.812 9.172V8.605H171.046V10.285C171.536 9.627 172.026 9.151 172.516 8.857C173.02 8.549 173.531 8.395 174.049 8.395C174.497 8.395 174.917 8.528 175.309 8.794C175.701 9.06 176.03 9.487 176.296 10.075L174.931 10.894C174.721 10.39 174.483 10.04 174.217 9.844C173.951 9.648 173.657 9.55 173.335 9.55C172.985 9.55 172.635 9.662 172.285 9.886C171.949 10.11 171.571 10.53 171.151 11.146V17.299C171.151 17.789 171.172 18.083 171.214 18.181C171.256 18.265 171.389 18.314 171.613 18.328L173.188 18.454V19H167.812V18.454L168.967 18.328C169.191 18.3 169.324 18.244 169.366 18.16C169.408 18.076 169.429 17.789 169.429 17.299V10.306C169.429 9.816 169.408 9.529 169.366 9.445C169.324 9.361 169.191 9.305 168.967 9.277L167.812 9.172ZM183.487 6.253C183.151 6.253 182.871 6.148 182.647 5.938C182.437 5.714 182.332 5.427 182.332 5.077C182.332 4.741 182.437 4.468 182.647 4.258C182.871 4.048 183.151 3.943 183.487 3.943C183.823 3.943 184.096 4.048 184.306 4.258C184.53 4.468 184.642 4.741 184.642 5.077C184.642 5.427 184.53 5.714 184.306 5.938C184.096 6.148 183.823 6.253 183.487 6.253ZM181.03 9.172V8.605H184.369V17.299C184.369 17.789 184.39 18.076 184.432 18.16C184.474 18.244 184.607 18.3 184.831 18.328L185.986 18.454V19H181.03V18.454L182.185 18.328C182.409 18.3 182.542 18.244 182.584 18.16C182.626 18.076 182.647 17.789 182.647 17.299V10.306C182.647 9.816 182.626 9.529 182.584 9.445C182.542 9.361 182.409 9.305 182.185 9.277L181.03 9.172Z" fill="#333333"/>
<path d="M79.83 84.58C79.47 85.94 78.79 86.9 77.79 87.46C76.81 88.02 75.72 88.3 74.52 88.3C72.3 88.3 70.64 87.63 69.54 86.29C68.44 84.93 67.89 83.12 67.89 80.86V80.26C67.89 78.02 68.42 76.23 69.48 74.89C70.54 73.53 72.08 72.85 74.1 72.85C75.18 72.85 76.16 73.07 77.04 73.51C77.94 73.95 78.65 74.6 79.17 75.46C79.71 76.32 79.98 77.39 79.98 78.67C79.98 79.27 79.92 79.9 79.8 80.56H70.59V81.46C70.59 83.56 70.91 85.07 71.55 85.99C72.21 86.89 73.27 87.34 74.73 87.34C75.65 87.34 76.41 87.1 77.01 86.62C77.63 86.14 78.04 85.31 78.24 84.13L79.83 84.58ZM74.1 73.81C72.92 73.81 72.04 74.26 71.46 75.16C70.88 76.06 70.59 77.54 70.59 79.6H77.34V79.51C77.38 79.25 77.41 79 77.43 78.76C77.45 78.5 77.46 78.27 77.46 78.07C77.46 76.57 77.15 75.49 76.53 74.83C75.91 74.15 75.1 73.81 74.1 73.81ZM100.817 75.4L96.4373 88H94.4873L90.0773 75.4C89.8773 74.82 89.7273 74.47 89.6273 74.35C89.5273 74.23 89.3173 74.15 88.9973 74.11L87.4673 73.96V73.15H94.3073V73.96L92.7773 74.11C92.4573 74.15 92.2873 74.23 92.2673 74.35C92.2473 74.45 92.3373 74.8 92.5373 75.4L96.1673 85.84L99.7373 75.4C99.9373 74.8 100.027 74.45 100.007 74.35C99.9873 74.23 99.8173 74.15 99.4973 74.11L97.9373 73.96V73.15H103.397V73.96L101.867 74.11C101.547 74.15 101.337 74.23 101.237 74.35C101.157 74.45 101.017 74.8 100.817 75.4ZM122.592 84.58C122.232 85.94 121.552 86.9 120.552 87.46C119.572 88.02 118.482 88.3 117.282 88.3C115.062 88.3 113.402 87.63 112.302 86.29C111.202 84.93 110.652 83.12 110.652 80.86V80.26C110.652 78.02 111.182 76.23 112.242 74.89C113.302 73.53 114.842 72.85 116.862 72.85C117.942 72.85 118.922 73.07 119.802 73.51C120.702 73.95 121.412 74.6 121.932 75.46C122.472 76.32 122.742 77.39 122.742 78.67C122.742 79.27 122.682 79.9 122.562 80.56H113.352V81.46C113.352 83.56 113.672 85.07 114.312 85.99C114.972 86.89 116.032 87.34 117.492 87.34C118.412 87.34 119.172 87.1 119.772 86.62C120.392 86.14 120.802 85.31 121.002 84.13L122.592 84.58ZM116.862 73.81C115.682 73.81 114.802 74.26 114.222 75.16C113.642 76.06 113.352 77.54 113.352 79.6H120.102V79.51C120.142 79.25 120.172 79 120.192 78.76C120.212 78.5 120.222 78.27 120.222 78.07C120.222 76.57 119.912 75.49 119.292 74.83C118.672 74.15 117.862 73.81 116.862 73.81ZM131.363 66.61V65.8H136.133V85.57C136.133 86.27 136.163 86.68 136.223 86.8C136.283 86.92 136.473 87 136.793 87.04L138.443 87.22V88H131.363V87.22L133.013 87.04C133.333 87 133.523 86.92 133.583 86.8C133.643 86.68 133.673 86.27 133.673 85.57V68.23C133.673 67.53 133.643 67.12 133.583 67C133.523 66.88 133.333 66.8 133.013 66.76L131.363 66.61ZM160.163 80.26V80.86C160.163 83.12 159.593 84.93 158.453 86.29C157.333 87.63 155.733 88.3 153.653 88.3C151.593 88.3 149.993 87.63 148.853 86.29C147.733 84.93 147.173 83.12 147.173 80.86V80.26C147.173 78.02 147.733 76.23 148.853 74.89C149.973 73.53 151.573 72.85 153.653 72.85C155.733 72.85 157.333 73.53 158.453 74.89C159.593 76.23 160.163 78.02 160.163 80.26ZM157.463 79.66C157.463 77.58 157.133 76.09 156.473 75.19C155.833 74.27 154.893 73.81 153.653 73.81C152.433 73.81 151.493 74.27 150.833 75.19C150.193 76.09 149.873 77.58 149.873 79.66V81.46C149.873 83.56 150.193 85.07 150.833 85.99C151.493 86.89 152.433 87.34 153.653 87.34C154.893 87.34 155.833 86.89 156.473 85.99C157.133 85.07 157.463 83.56 157.463 81.46V79.66ZM168.852 73.93V73.15H173.472V75.55C174.072 74.61 174.742 73.93 175.482 73.51C176.242 73.07 177.082 72.85 178.002 72.85C179.722 72.85 181.052 73.5 181.992 74.8C182.952 76.1 183.432 77.92 183.432 80.26V80.86C183.432 83.14 182.882 84.95 181.782 86.29C180.682 87.63 179.152 88.3 177.192 88.3C175.792 88.3 174.602 87.87 173.622 87.01V91.96C173.622 92.64 173.652 93.04 173.712 93.16C173.772 93.3 173.962 93.39 174.282 93.43L176.532 93.58V94.39H168.852V93.58L170.502 93.43C170.822 93.39 171.012 93.3 171.072 93.16C171.132 93.04 171.162 92.64 171.162 91.96V75.58C171.162 74.88 171.132 74.47 171.072 74.35C171.012 74.23 170.822 74.15 170.502 74.11L168.852 73.93ZM177.612 73.93C176.992 73.93 176.342 74.13 175.662 74.53C175.002 74.93 174.322 75.74 173.622 76.96V85.54C174.482 86.72 175.622 87.31 177.042 87.31C178.342 87.31 179.282 86.82 179.862 85.84C180.442 84.84 180.732 83.48 180.732 81.76V79.36C180.732 77.48 180.462 76.11 179.922 75.25C179.382 74.37 178.612 73.93 177.612 73.93Z" fill="#333333"/>
</svg>
