<svg width="173" height="41" viewBox="0 0 173 41" fill="none" xmlns="http://www.w3.org/2000/svg">
<path d="M2.12 35V20.4H4.72L9.04 30.14H9.36L13.66 20.4H16.28V35H14.32V22.54L14.46 22.58L10.32 31.98H7.92L3.76 22.58L3.92 22.54V35H2.12ZM23.3584 35V24.32H25.2784V35H23.3584ZM21.7184 25.84V24.32H25.2784V25.84H21.7184ZM23.8984 22.6C23.4718 22.6 23.1518 22.4867 22.9384 22.26C22.7384 22.0333 22.6384 21.7467 22.6384 21.4C22.6384 21.0533 22.7384 20.7667 22.9384 20.54C23.1518 20.3133 23.4718 20.2 23.8984 20.2C24.3251 20.2 24.6384 20.3133 24.8384 20.54C25.0518 20.7667 25.1584 21.0533 25.1584 21.4C25.1584 21.7467 25.0518 22.0333 24.8384 22.26C24.6384 22.4867 24.3251 22.6 23.8984 22.6ZM34.7108 35L36.8708 24.68H39.4708L41.9908 35H40.3508L37.8308 24.72H38.4708L36.2908 35H34.7108ZM33.7308 35V33.48H35.9508V35H33.7308ZM33.2908 35L30.2708 24.32H32.1108L35.0508 35H33.2908ZM40.7508 35V33.48H42.9708V35H40.7508ZM41.6508 35L44.2108 24.32H45.9508L43.3308 35H41.6508ZM57.5258 35V31.8H57.2058V28.1C57.2058 27.3667 57.0124 26.8133 56.6258 26.44C56.2524 26.0667 55.6991 25.88 54.9658 25.88C54.5524 25.88 54.1258 25.8867 53.6858 25.9C53.2458 25.9133 52.8258 25.9267 52.4258 25.94C52.0258 25.9533 51.6791 25.9733 51.3858 26V24.32C51.6791 24.2933 51.9858 24.2733 52.3058 24.26C52.6391 24.2333 52.9791 24.22 53.3258 24.22C53.6724 24.2067 54.0058 24.2 54.3258 24.2C55.4191 24.2 56.3124 24.3333 57.0058 24.6C57.6991 24.8533 58.2124 25.2733 58.5458 25.86C58.8791 26.4467 59.0458 27.24 59.0458 28.24V35H57.5258ZM54.0258 35.28C53.2258 35.28 52.5324 35.1467 51.9458 34.88C51.3724 34.6 50.9258 34.2 50.6058 33.68C50.2991 33.16 50.1458 32.5333 50.1458 31.8C50.1458 31.04 50.3124 30.4067 50.6458 29.9C50.9924 29.3933 51.4924 29.0133 52.1458 28.76C52.7991 28.4933 53.5858 28.36 54.5058 28.36H57.4058V29.8H54.4258C53.6524 29.8 53.0591 29.9867 52.6458 30.36C52.2324 30.7333 52.0258 31.2133 52.0258 31.8C52.0258 32.3867 52.2324 32.86 52.6458 33.22C53.0591 33.58 53.6524 33.76 54.4258 33.76C54.8791 33.76 55.3124 33.68 55.7258 33.52C56.1391 33.3467 56.4791 33.0667 56.7458 32.68C57.0258 32.28 57.1791 31.7333 57.2058 31.04L57.7258 31.8C57.6591 32.56 57.4724 33.2 57.1658 33.72C56.8724 34.2267 56.4591 34.6133 55.9258 34.88C55.4058 35.1467 54.7724 35.28 54.0258 35.28ZM81.8005 35L75.8605 28.18H73.7205L80.5005 20.4H82.7405L76.5805 27.44L76.4005 26.06L84.2405 35H81.8005ZM72.6005 35V20.4H74.5605V35H72.6005ZM94.9352 35V31.8H94.6152V28.1C94.6152 27.3667 94.4218 26.8133 94.0352 26.44C93.6618 26.0667 93.1085 25.88 92.3752 25.88C91.9618 25.88 91.5352 25.8867 91.0952 25.9C90.6552 25.9133 90.2352 25.9267 89.8352 25.94C89.4352 25.9533 89.0885 25.9733 88.7952 26V24.32C89.0885 24.2933 89.3952 24.2733 89.7152 24.26C90.0485 24.2333 90.3885 24.22 90.7352 24.22C91.0818 24.2067 91.4152 24.2 91.7352 24.2C92.8285 24.2 93.7218 24.3333 94.4152 24.6C95.1085 24.8533 95.6218 25.2733 95.9552 25.86C96.2885 26.4467 96.4552 27.24 96.4552 28.24V35H94.9352ZM91.4352 35.28C90.6352 35.28 89.9418 35.1467 89.3552 34.88C88.7818 34.6 88.3352 34.2 88.0152 33.68C87.7085 33.16 87.5552 32.5333 87.5552 31.8C87.5552 31.04 87.7218 30.4067 88.0552 29.9C88.4018 29.3933 88.9018 29.0133 89.5552 28.76C90.2085 28.4933 90.9952 28.36 91.9152 28.36H94.8152V29.8H91.8352C91.0618 29.8 90.4685 29.9867 90.0552 30.36C89.6418 30.7333 89.4352 31.2133 89.4352 31.8C89.4352 32.3867 89.6418 32.86 90.0552 33.22C90.4685 33.58 91.0618 33.76 91.8352 33.76C92.2885 33.76 92.7218 33.68 93.1352 33.52C93.5485 33.3467 93.8885 33.0667 94.1552 32.68C94.4352 32.28 94.5885 31.7333 94.6152 31.04L95.1352 31.8C95.0685 32.56 94.8818 33.2 94.5752 33.72C94.2818 34.2267 93.8685 34.6133 93.3352 34.88C92.8152 35.1467 92.1818 35.28 91.4352 35.28ZM106.739 35.12C105.939 35.12 105.246 35.0067 104.659 34.78C104.086 34.5533 103.639 34.1667 103.319 33.62C103.012 33.06 102.859 32.3067 102.859 31.36V21.08H104.699V31.6C104.699 32.1733 104.852 32.62 105.159 32.94C105.479 33.2467 105.926 33.4 106.499 33.4H108.379V35.12H106.739ZM101.019 25.76V24.32H108.379V25.76H101.019ZM120.116 35V31.8H119.796V28.1C119.796 27.3667 119.602 26.8133 119.216 26.44C118.842 26.0667 118.289 25.88 117.556 25.88C117.142 25.88 116.716 25.8867 116.276 25.9C115.836 25.9133 115.416 25.9267 115.016 25.94C114.616 25.9533 114.269 25.9733 113.976 26V24.32C114.269 24.2933 114.576 24.2733 114.896 24.26C115.229 24.2333 115.569 24.22 115.916 24.22C116.262 24.2067 116.596 24.2 116.916 24.2C118.009 24.2 118.902 24.3333 119.596 24.6C120.289 24.8533 120.802 25.2733 121.136 25.86C121.469 26.4467 121.636 27.24 121.636 28.24V35H120.116ZM116.616 35.28C115.816 35.28 115.122 35.1467 114.536 34.88C113.962 34.6 113.516 34.2 113.196 33.68C112.889 33.16 112.736 32.5333 112.736 31.8C112.736 31.04 112.902 30.4067 113.236 29.9C113.582 29.3933 114.082 29.0133 114.736 28.76C115.389 28.4933 116.176 28.36 117.096 28.36H119.996V29.8H117.016C116.242 29.8 115.649 29.9867 115.236 30.36C114.822 30.7333 114.616 31.2133 114.616 31.8C114.616 32.3867 114.822 32.86 115.236 33.22C115.649 33.58 116.242 33.76 117.016 33.76C117.469 33.76 117.902 33.68 118.316 33.52C118.729 33.3467 119.069 33.0667 119.336 32.68C119.616 32.28 119.769 31.7333 119.796 31.04L120.316 31.8C120.249 32.56 120.062 33.2 119.756 33.72C119.462 34.2267 119.049 34.6133 118.516 34.88C117.996 35.1467 117.362 35.28 116.616 35.28ZM131.8 39.16C131.306 39.16 130.806 39.14 130.3 39.1C129.806 39.06 129.333 39.0067 128.88 38.94V37.32C129.36 37.3867 129.86 37.44 130.38 37.48C130.913 37.5333 131.413 37.56 131.88 37.56C132.853 37.56 133.626 37.4267 134.2 37.16C134.786 36.9067 135.206 36.5 135.46 35.94C135.726 35.3933 135.86 34.6867 135.86 33.82V31.78L136.5 30.26C136.46 31.34 136.233 32.24 135.82 32.96C135.406 33.6667 134.866 34.2 134.2 34.56C133.546 34.9067 132.82 35.08 132.02 35.08C131.273 35.08 130.586 34.94 129.96 34.66C129.346 34.3667 128.813 33.9667 128.36 33.46C127.92 32.9533 127.573 32.3733 127.32 31.72C127.08 31.0533 126.96 30.3533 126.96 29.62V29.26C126.96 28.5133 127.086 27.82 127.34 27.18C127.593 26.5267 127.946 25.96 128.4 25.48C128.853 25 129.393 24.6267 130.02 24.36C130.66 24.0933 131.36 23.96 132.12 23.96C133.013 23.96 133.8 24.1533 134.48 24.54C135.16 24.9133 135.693 25.4667 136.08 26.2C136.48 26.92 136.7 27.8067 136.74 28.86L136.18 28.88V24.32H137.7V33.74C137.7 35.02 137.5 36.0533 137.1 36.84C136.713 37.64 136.086 38.2267 135.22 38.6C134.366 38.9733 133.226 39.16 131.8 39.16ZM132.38 33.32C133.02 33.32 133.6 33.18 134.12 32.9C134.653 32.62 135.073 32.22 135.38 31.7C135.7 31.1667 135.86 30.5333 135.86 29.8V28.88C135.86 28.16 135.693 27.5533 135.36 27.06C135.04 26.5667 134.62 26.1933 134.1 25.94C133.58 25.6867 133.013 25.56 132.4 25.56C131.706 25.56 131.093 25.72 130.56 26.04C130.026 26.36 129.613 26.8133 129.32 27.4C129.026 27.9733 128.88 28.6533 128.88 29.44C128.88 30.2267 129.026 30.9133 129.32 31.5C129.626 32.0867 130.04 32.54 130.56 32.86C131.093 33.1667 131.7 33.32 132.38 33.32ZM144.376 35V24.32H146.296V35H144.376ZM142.736 25.84V24.32H146.296V25.84H142.736ZM144.916 22.6C144.489 22.6 144.169 22.4867 143.956 22.26C143.756 22.0333 143.656 21.7467 143.656 21.4C143.656 21.0533 143.756 20.7667 143.956 20.54C144.169 20.3133 144.489 20.2 144.916 20.2C145.342 20.2 145.656 20.3133 145.856 20.54C146.069 20.7667 146.176 21.0533 146.176 21.4C146.176 21.7467 146.069 22.0333 145.856 22.26C145.656 22.4867 145.342 22.6 144.916 22.6ZM152.608 35V24.32H154.128V28.72H154.048C154.048 27.16 154.388 26.02 155.068 25.3C155.761 24.5667 156.795 24.2 158.168 24.2H158.528V25.92H157.848C156.781 25.92 155.961 26.2067 155.388 26.78C154.815 27.34 154.528 28.1533 154.528 29.22V35H152.608ZM163.931 35V24.32H165.851V35H163.931ZM162.291 25.84V24.32H165.851V25.84H162.291ZM164.471 22.6C164.044 22.6 163.724 22.4867 163.511 22.26C163.311 22.0333 163.211 21.7467 163.211 21.4C163.211 21.0533 163.311 20.7667 163.511 20.54C163.724 20.3133 164.044 20.2 164.471 20.2C164.898 20.2 165.211 20.3133 165.411 20.54C165.624 20.7667 165.731 21.0533 165.731 21.4C165.731 21.7467 165.624 22.0333 165.411 22.26C165.211 22.4867 164.898 22.6 164.471 22.6Z" fill="#333333"/>
<line x1="1" y1="6.5" x2="51" y2="6.5" stroke="#333333"/>
<line x1="123" y1="6.5" x2="173" y2="6.5" stroke="#333333"/>
<path d="M63.135 12.234C62.277 12.234 61.5533 12.0693 60.964 11.74C60.3833 11.402 59.9413 10.934 59.638 10.336C59.3433 9.72933 59.196 9.02733 59.196 8.23V2.51H60.47V8.386C60.47 8.91467 60.5697 9.38267 60.769 9.79C60.977 10.1887 61.2803 10.5007 61.679 10.726C62.0777 10.9513 62.563 11.064 63.135 11.064C63.707 11.064 64.188 10.9557 64.578 10.739C64.9767 10.5137 65.2757 10.2017 65.475 9.803C65.683 9.39567 65.787 8.92333 65.787 8.386V2.51H67.061V8.23C67.061 9.02733 66.9137 9.72933 66.619 10.336C66.3243 10.934 65.8867 11.402 65.306 11.74C64.7253 12.0693 64.0017 12.234 63.135 12.234ZM70.8596 12L74.3956 6.93V7.164L71.1716 2.51H72.6146L75.0976 6.15H75.3056L77.8276 2.51H79.2056L75.8906 7.216L75.8776 6.982L79.4656 12H78.0226L75.1886 8.009H74.9806L72.2376 12H70.8596Z" fill="#333333"/>
<path d="M103.135 12.234C102.277 12.234 101.553 12.0693 100.964 11.74C100.383 11.402 99.9413 10.934 99.638 10.336C99.3433 9.72933 99.196 9.02733 99.196 8.23V2.51H100.47V8.386C100.47 8.91467 100.57 9.38267 100.769 9.79C100.977 10.1887 101.28 10.5007 101.679 10.726C102.078 10.9513 102.563 11.064 103.135 11.064C103.707 11.064 104.188 10.9557 104.578 10.739C104.977 10.5137 105.276 10.2017 105.475 9.803C105.683 9.39567 105.787 8.92333 105.787 8.386V2.51H107.061V8.23C107.061 9.02733 106.914 9.72933 106.619 10.336C106.324 10.934 105.887 11.402 105.306 11.74C104.725 12.0693 104.002 12.234 103.135 12.234ZM112.132 12V2.51H113.406V12H112.132Z" fill="#333333"/>
<circle cx="89" cy="7" r="2" fill="#D10C0C"/>
</svg>
