<svg width="168" height="24" viewBox="0 0 168 24" fill="none" xmlns="http://www.w3.org/2000/svg">
<path d="M2.28 19V5H3.5L9.9 15.92H9.26L15.6 5H16.82V19H15.4V7.22H15.74L9.9 17.22H9.2L3.32 7.22H3.7V19H2.28ZM23.6816 19V8.5H25.1016V19H23.6816ZM24.4016 6.18C24.1082 6.18 23.8616 6.08 23.6616 5.88C23.4616 5.68 23.3616 5.44 23.3616 5.16C23.3616 4.88 23.4616 4.64667 23.6616 4.46C23.8616 4.26 24.1082 4.16 24.4016 4.16C24.6949 4.16 24.9416 4.25333 25.1416 4.44C25.3416 4.62667 25.4416 4.86 25.4416 5.14C25.4416 5.43333 25.3416 5.68 25.1416 5.88C24.9549 6.08 24.7082 6.18 24.4016 6.18ZM33.7927 19L29.8327 8.5H31.1927L34.7927 18.24H34.1727L37.8727 8.5H39.0927L42.7527 18.24H42.1327L45.7927 8.5H47.0927L43.1127 19H41.7727L38.2527 9.84H38.6727L35.1327 19H33.7927ZM58.0983 19V16.68L58.0383 16.3V12.42C58.0383 11.5267 57.7849 10.84 57.2783 10.36C56.7849 9.88 56.0449 9.64 55.0583 9.64C54.3783 9.64 53.7316 9.75333 53.1183 9.98C52.5049 10.2067 51.9849 10.5067 51.5583 10.88L50.9183 9.82C51.4516 9.36667 52.0916 9.02 52.8383 8.78C53.5849 8.52667 54.3716 8.4 55.1983 8.4C56.5583 8.4 57.6049 8.74 58.3383 9.42C59.0849 10.0867 59.4583 11.1067 59.4583 12.48V19H58.0983ZM54.4783 19.1C53.6916 19.1 53.0049 18.9733 52.4183 18.72C51.8449 18.4533 51.4049 18.0933 51.0983 17.64C50.7916 17.1733 50.6383 16.64 50.6383 16.04C50.6383 15.4933 50.7649 15 51.0183 14.56C51.2849 14.1067 51.7116 13.7467 52.2983 13.48C52.8983 13.2 53.6983 13.06 54.6983 13.06H58.3183V14.12H54.7383C53.7249 14.12 53.0183 14.3 52.6183 14.66C52.2316 15.02 52.0383 15.4667 52.0383 16C52.0383 16.6 52.2716 17.08 52.7383 17.44C53.2049 17.8 53.8583 17.98 54.6983 17.98C55.4983 17.98 56.1849 17.8 56.7583 17.44C57.3449 17.0667 57.7716 16.5333 58.0383 15.84L58.3583 16.82C58.0916 17.5133 57.6249 18.0667 56.9583 18.48C56.3049 18.8933 55.4783 19.1 54.4783 19.1ZM75.3295 15.52L75.2695 13.72L83.7495 5H85.4495L79.2695 11.48L78.4295 12.38L75.3295 15.52ZM74.0495 19V5H75.5295V19H74.0495ZM84.1095 19L78.0695 12.04L79.0695 10.96L85.8695 19H84.1095ZM96.8748 19V16.68L96.8148 16.3V12.42C96.8148 11.5267 96.5615 10.84 96.0548 10.36C95.5615 9.88 94.8215 9.64 93.8348 9.64C93.1548 9.64 92.5082 9.75333 91.8948 9.98C91.2815 10.2067 90.7615 10.5067 90.3348 10.88L89.6948 9.82C90.2282 9.36667 90.8682 9.02 91.6148 8.78C92.3615 8.52667 93.1482 8.4 93.9748 8.4C95.3348 8.4 96.3815 8.74 97.1148 9.42C97.8615 10.0867 98.2348 11.1067 98.2348 12.48V19H96.8748ZM93.2548 19.1C92.4682 19.1 91.7815 18.9733 91.1948 18.72C90.6215 18.4533 90.1815 18.0933 89.8748 17.64C89.5682 17.1733 89.4148 16.64 89.4148 16.04C89.4148 15.4933 89.5415 15 89.7948 14.56C90.0615 14.1067 90.4882 13.7467 91.0748 13.48C91.6748 13.2 92.4748 13.06 93.4748 13.06H97.0948V14.12H93.5148C92.5015 14.12 91.7948 14.3 91.3948 14.66C91.0082 15.02 90.8148 15.4667 90.8148 16C90.8148 16.6 91.0482 17.08 91.5148 17.44C91.9815 17.8 92.6348 17.98 93.4748 17.98C94.2748 17.98 94.9615 17.8 95.5348 17.44C96.1215 17.0667 96.5482 16.5333 96.8148 15.84L97.1348 16.82C96.8682 17.5133 96.4015 18.0667 95.7348 18.48C95.0815 18.8933 94.2548 19.1 93.2548 19.1ZM108.012 19.1C107.025 19.1 106.265 18.8333 105.732 18.3C105.198 17.7667 104.932 17.0133 104.932 16.04V6.18H106.352V15.96C106.352 16.5733 106.505 17.0467 106.812 17.38C107.132 17.7133 107.585 17.88 108.172 17.88C108.798 17.88 109.318 17.7 109.732 17.34L110.232 18.36C109.952 18.6133 109.612 18.8 109.212 18.92C108.825 19.04 108.425 19.1 108.012 19.1ZM103.052 9.68V8.5H109.552V9.68H103.052ZM121.997 19V16.68L121.937 16.3V12.42C121.937 11.5267 121.683 10.84 121.177 10.36C120.683 9.88 119.943 9.64 118.957 9.64C118.277 9.64 117.63 9.75333 117.017 9.98C116.403 10.2067 115.883 10.5067 115.457 10.88L114.817 9.82C115.35 9.36667 115.99 9.02 116.737 8.78C117.483 8.52667 118.27 8.4 119.097 8.4C120.457 8.4 121.503 8.74 122.237 9.42C122.983 10.0867 123.357 11.1067 123.357 12.48V19H121.997ZM118.377 19.1C117.59 19.1 116.903 18.9733 116.317 18.72C115.743 18.4533 115.303 18.0933 114.997 17.64C114.69 17.1733 114.537 16.64 114.537 16.04C114.537 15.4933 114.663 15 114.917 14.56C115.183 14.1067 115.61 13.7467 116.197 13.48C116.797 13.2 117.597 13.06 118.597 13.06H122.217V14.12H118.637C117.623 14.12 116.917 14.3 116.517 14.66C116.13 15.02 115.937 15.4667 115.937 16C115.937 16.6 116.17 17.08 116.637 17.44C117.103 17.8 117.757 17.98 118.597 17.98C119.397 17.98 120.083 17.8 120.657 17.44C121.243 17.0667 121.67 16.5333 121.937 15.84L122.257 16.82C121.99 17.5133 121.523 18.0667 120.857 18.48C120.203 18.8933 119.377 19.1 118.377 19.1ZM134.294 22.98C133.334 22.98 132.414 22.84 131.534 22.56C130.654 22.28 129.94 21.88 129.394 21.36L130.114 20.28C130.607 20.72 131.214 21.0667 131.934 21.32C132.667 21.5867 133.44 21.72 134.254 21.72C135.587 21.72 136.567 21.4067 137.194 20.78C137.82 20.1667 138.134 19.2067 138.134 17.9V15.28L138.334 13.48L138.194 11.68V8.5H139.554V17.72C139.554 19.5333 139.107 20.86 138.214 21.7C137.334 22.5533 136.027 22.98 134.294 22.98ZM134.034 18.6C133.034 18.6 132.134 18.3867 131.334 17.96C130.534 17.52 129.9 16.9133 129.434 16.14C128.98 15.3667 128.754 14.48 128.754 13.48C128.754 12.48 128.98 11.6 129.434 10.84C129.9 10.0667 130.534 9.46667 131.334 9.04C132.134 8.61333 133.034 8.4 134.034 8.4C134.967 8.4 135.807 8.59333 136.554 8.98C137.3 9.36667 137.894 9.94 138.334 10.7C138.774 11.46 138.994 12.3867 138.994 13.48C138.994 14.5733 138.774 15.5 138.334 16.26C137.894 17.02 137.3 17.6 136.554 18C135.807 18.4 134.967 18.6 134.034 18.6ZM134.174 17.34C134.947 17.34 135.634 17.18 136.234 16.86C136.834 16.5267 137.307 16.0733 137.654 15.5C138 14.9133 138.174 14.24 138.174 13.48C138.174 12.72 138 12.0533 137.654 11.48C137.307 10.9067 136.834 10.46 136.234 10.14C135.634 9.80667 134.947 9.64 134.174 9.64C133.414 9.64 132.727 9.80667 132.114 10.14C131.514 10.46 131.04 10.9067 130.694 11.48C130.36 12.0533 130.194 12.72 130.194 13.48C130.194 14.24 130.36 14.9133 130.694 15.5C131.04 16.0733 131.514 16.5267 132.114 16.86C132.727 17.18 133.414 17.34 134.174 17.34ZM146.105 19V8.5H147.525V19H146.105ZM146.825 6.18C146.532 6.18 146.285 6.08 146.085 5.88C145.885 5.68 145.785 5.44 145.785 5.16C145.785 4.88 145.885 4.64667 146.085 4.46C146.285 4.26 146.532 4.16 146.825 4.16C147.118 4.16 147.365 4.25333 147.565 4.44C147.765 4.62667 147.865 4.86 147.865 5.14C147.865 5.43333 147.765 5.68 147.565 5.88C147.378 6.08 147.132 6.18 146.825 6.18ZM154.076 19V8.5H155.436V11.36L155.296 10.86C155.589 10.06 156.083 9.45333 156.776 9.04C157.469 8.61333 158.329 8.4 159.356 8.4V9.78C159.303 9.78 159.249 9.78 159.196 9.78C159.143 9.76667 159.089 9.76 159.036 9.76C157.929 9.76 157.063 10.1 156.436 10.78C155.809 11.4467 155.496 12.4 155.496 13.64V19H154.076ZM164.547 19V8.5H165.967V19H164.547ZM165.267 6.18C164.974 6.18 164.727 6.08 164.527 5.88C164.327 5.68 164.227 5.44 164.227 5.16C164.227 4.88 164.327 4.64667 164.527 4.46C164.727 4.26 164.974 4.16 165.267 4.16C165.561 4.16 165.807 4.25333 166.007 4.44C166.207 4.62667 166.307 4.86 166.307 5.14C166.307 5.43333 166.207 5.68 166.007 5.88C165.821 6.08 165.574 6.18 165.267 6.18Z" fill="#333333"/>
<circle cx="25" cy="5" r="2" fill="#D10C0C"/>
<circle cx="147" cy="5" r="2" fill="#D10C0C"/>
<circle cx="166" cy="5" r="2" fill="#D10C0C"/>
</svg>
