<svg width="167" height="43" viewBox="0 0 167 43" fill="none" xmlns="http://www.w3.org/2000/svg">
<path d="M1.84943 22.7273H4.05682L9.24716 35.4048H9.42614L14.6165 22.7273H16.8239V38H15.0938V26.3963H14.9446L10.1719 38H8.50142L3.72869 26.3963H3.57955V38H1.84943V22.7273ZM23.0234 38V26.5455H24.7834V38H23.0234ZM23.9183 24.6364C23.5753 24.6364 23.2794 24.5195 23.0309 24.2859C22.7873 24.0522 22.6655 23.7713 22.6655 23.4432C22.6655 23.1151 22.7873 22.8342 23.0309 22.6005C23.2794 22.3668 23.5753 22.25 23.9183 22.25C24.2613 22.25 24.5547 22.3668 24.7983 22.6005C25.0468 22.8342 25.1711 23.1151 25.1711 23.4432C25.1711 23.7713 25.0468 24.0522 24.7983 24.2859C24.5547 24.5195 24.2613 24.6364 23.9183 24.6364ZM33.332 38L29.8419 26.5455H31.6914L34.1672 35.3153H34.2865L36.7325 26.5455H38.6118L41.028 35.2855H41.1473L43.6232 26.5455H45.4726L41.9825 38H40.2524L37.7468 29.2003H37.5678L35.0621 38H33.332ZM53.9 38.2685C53.1742 38.2685 52.5155 38.1317 51.9238 37.8583C51.3322 37.5799 50.8624 37.1797 50.5144 36.6577C50.1664 36.1307 49.9924 35.4943 49.9924 34.7486C49.9924 34.0923 50.1216 33.5604 50.3802 33.1527C50.6387 32.7401 50.9842 32.4169 51.4167 32.1832C51.8493 31.9496 52.3265 31.7756 52.8486 31.6612C53.3755 31.5419 53.905 31.4474 54.437 31.3778C55.133 31.2884 55.6973 31.2212 56.1298 31.1765C56.5673 31.1268 56.8855 31.0447 57.0844 30.9304C57.2882 30.8161 57.3901 30.6172 57.3901 30.3338V30.2741C57.3901 29.5384 57.1888 28.9666 56.7861 28.5589C56.3883 28.1513 55.7843 27.9474 54.9739 27.9474C54.1337 27.9474 53.475 28.1314 52.9977 28.4993C52.5204 28.8672 52.1848 29.2599 51.991 29.6776L50.3205 29.081C50.6188 28.3849 51.0165 27.843 51.5137 27.4553C52.0158 27.0625 52.5627 26.7891 53.1543 26.6349C53.7509 26.4759 54.3375 26.3963 54.9143 26.3963C55.2822 26.3963 55.7047 26.4411 56.182 26.5305C56.6643 26.6151 57.1291 26.7915 57.5765 27.06C58.029 27.3285 58.4043 27.7337 58.7026 28.2756C59.0009 28.8175 59.15 29.5433 59.15 30.4531V38H57.3901V36.4489H57.3006C57.1813 36.6974 56.9824 36.9634 56.704 37.2468C56.4256 37.5302 56.0552 37.7713 55.5929 37.9702C55.1305 38.169 54.5662 38.2685 53.9 38.2685ZM54.1685 36.6875C54.8645 36.6875 55.4512 36.5508 55.9285 36.2773C56.4107 36.0039 56.7736 35.6509 57.0172 35.2184C57.2658 34.7859 57.3901 34.331 57.3901 33.8537V32.2429C57.3155 32.3324 57.1515 32.4144 56.8979 32.489C56.6493 32.5586 56.361 32.6207 56.0329 32.6754C55.7097 32.7251 55.394 32.7699 55.0858 32.8097C54.7825 32.8445 54.5364 32.8743 54.3475 32.8991C53.8901 32.9588 53.4625 33.0558 53.0648 33.19C52.6721 33.3192 52.3539 33.5156 52.1103 33.7791C51.8716 34.0376 51.7523 34.3906 51.7523 34.8381C51.7523 35.4496 51.9785 35.9119 52.4309 36.2251C52.8883 36.5334 53.4675 36.6875 54.1685 36.6875ZM73.9672 38V22.7273H75.8166V30.304H75.9956L82.8564 22.7273H85.2726L78.8593 29.6179L85.2726 38H83.0354L77.7257 30.9006L75.8166 33.0483V38H73.9672ZM93.5285 38.2685C92.8027 38.2685 92.1439 38.1317 91.5523 37.8583C90.9607 37.5799 90.4909 37.1797 90.1429 36.6577C89.7949 36.1307 89.6209 35.4943 89.6209 34.7486C89.6209 34.0923 89.7501 33.5604 90.0086 33.1527C90.2672 32.7401 90.6127 32.4169 91.0452 32.1832C91.4777 31.9496 91.955 31.7756 92.477 31.6612C93.004 31.5419 93.5335 31.4474 94.0655 31.3778C94.7615 31.2884 95.3258 31.2212 95.7583 31.1765C96.1958 31.1268 96.514 31.0447 96.7128 30.9304C96.9167 30.8161 97.0186 30.6172 97.0186 30.3338V30.2741C97.0186 29.5384 96.8172 28.9666 96.4145 28.5589C96.0168 28.1513 95.4128 27.9474 94.6024 27.9474C93.7622 27.9474 93.1035 28.1314 92.6262 28.4993C92.1489 28.8672 91.8133 29.2599 91.6194 29.6776L89.949 29.081C90.2473 28.3849 90.645 27.843 91.1422 27.4553C91.6443 27.0625 92.1912 26.7891 92.7828 26.6349C93.3794 26.4759 93.966 26.3963 94.5427 26.3963C94.9106 26.3963 95.3332 26.4411 95.8105 26.5305C96.2927 26.6151 96.7576 26.7915 97.205 27.06C97.6574 27.3285 98.0328 27.7337 98.3311 28.2756C98.6294 28.8175 98.7785 29.5433 98.7785 30.4531V38H97.0186V36.4489H96.9291C96.8098 36.6974 96.6109 36.9634 96.3325 37.2468C96.0541 37.5302 95.6837 37.7713 95.2214 37.9702C94.759 38.169 94.1947 38.2685 93.5285 38.2685ZM93.797 36.6875C94.493 36.6875 95.0797 36.5508 95.5569 36.2773C96.0392 36.0039 96.4021 35.6509 96.6457 35.2184C96.8943 34.7859 97.0186 34.331 97.0186 33.8537V32.2429C96.944 32.3324 96.7799 32.4144 96.5264 32.489C96.2778 32.5586 95.9895 32.6207 95.6613 32.6754C95.3382 32.7251 95.0225 32.7699 94.7142 32.8097C94.411 32.8445 94.1649 32.8743 93.976 32.8991C93.5186 32.9588 93.091 33.0558 92.6933 33.19C92.3005 33.3192 91.9824 33.5156 91.7388 33.7791C91.5001 34.0376 91.3808 34.3906 91.3808 34.8381C91.3808 35.4496 91.607 35.9119 92.0594 36.2251C92.5168 36.5334 93.096 36.6875 93.797 36.6875ZM109.702 26.5455V28.0369H103.766V26.5455H109.702ZM105.496 23.8011H107.256V34.7188C107.256 35.2159 107.328 35.5888 107.473 35.8374C107.622 36.081 107.811 36.245 108.039 36.3295C108.273 36.4091 108.519 36.4489 108.778 36.4489C108.972 36.4489 109.131 36.4389 109.255 36.419C109.379 36.3942 109.479 36.3743 109.553 36.3594L109.911 37.9403C109.792 37.9851 109.625 38.0298 109.411 38.0746C109.198 38.1243 108.927 38.1491 108.599 38.1491C108.101 38.1491 107.614 38.0423 107.137 37.8285C106.665 37.6147 106.272 37.2891 105.959 36.8516C105.65 36.4141 105.496 35.8622 105.496 35.196V23.8011ZM118.45 38.2685C117.725 38.2685 117.066 38.1317 116.474 37.8583C115.883 37.5799 115.413 37.1797 115.065 36.6577C114.717 36.1307 114.543 35.4943 114.543 34.7486C114.543 34.0923 114.672 33.5604 114.931 33.1527C115.189 32.7401 115.535 32.4169 115.967 32.1832C116.4 31.9496 116.877 31.7756 117.399 31.6612C117.926 31.5419 118.455 31.4474 118.987 31.3778C119.683 31.2884 120.248 31.2212 120.68 31.1765C121.118 31.1268 121.436 31.0447 121.635 30.9304C121.839 30.8161 121.94 30.6172 121.94 30.3338V30.2741C121.94 29.5384 121.739 28.9666 121.336 28.5589C120.939 28.1513 120.335 27.9474 119.524 27.9474C118.684 27.9474 118.025 28.1314 117.548 28.4993C117.071 28.8672 116.735 29.2599 116.541 29.6776L114.871 29.081C115.169 28.3849 115.567 27.843 116.064 27.4553C116.566 27.0625 117.113 26.7891 117.705 26.6349C118.301 26.4759 118.888 26.3963 119.465 26.3963C119.833 26.3963 120.255 26.4411 120.732 26.5305C121.215 26.6151 121.679 26.7915 122.127 27.06C122.579 27.3285 122.955 27.7337 123.253 28.2756C123.551 28.8175 123.7 29.5433 123.7 30.4531V38H121.94V36.4489H121.851C121.732 36.6974 121.533 36.9634 121.254 37.2468C120.976 37.5302 120.606 37.7713 120.143 37.9702C119.681 38.169 119.117 38.2685 118.45 38.2685ZM118.719 36.6875C119.415 36.6875 120.002 36.5508 120.479 36.2773C120.961 36.0039 121.324 35.6509 121.568 35.2184C121.816 34.7859 121.94 34.331 121.94 33.8537V32.2429C121.866 32.3324 121.702 32.4144 121.448 32.489C121.2 32.5586 120.911 32.6207 120.583 32.6754C120.26 32.7251 119.944 32.7699 119.636 32.8097C119.333 32.8445 119.087 32.8743 118.898 32.8991C118.44 32.9588 118.013 33.0558 117.615 33.19C117.222 33.3192 116.904 33.5156 116.661 33.7791C116.422 34.0376 116.303 34.3906 116.303 34.8381C116.303 35.4496 116.529 35.9119 116.981 36.2251C117.439 36.5334 118.018 36.6875 118.719 36.6875ZM134.266 42.5341C133.416 42.5341 132.685 42.4247 132.074 42.206C131.462 41.9922 130.953 41.7088 130.545 41.3558C130.142 41.0078 129.822 40.6349 129.583 40.2372L130.985 39.2528C131.144 39.4616 131.345 39.7003 131.589 39.9688C131.833 40.2422 132.166 40.4783 132.588 40.6772C133.016 40.881 133.575 40.983 134.266 40.983C135.191 40.983 135.954 40.7592 136.556 40.3118C137.157 39.8643 137.458 39.1634 137.458 38.2088V35.8821H137.309C137.18 36.0909 136.996 36.3494 136.757 36.6577C136.523 36.9609 136.185 37.2319 135.743 37.4705C135.305 37.7042 134.714 37.821 133.968 37.821C133.043 37.821 132.213 37.6023 131.477 37.1648C130.746 36.7273 130.167 36.0909 129.74 35.2557C129.317 34.4205 129.106 33.4062 129.106 32.2131C129.106 31.0398 129.312 30.0181 129.725 29.1481C130.137 28.2731 130.712 27.5969 131.447 27.1197C132.183 26.6374 133.033 26.3963 133.998 26.3963C134.744 26.3963 135.335 26.5206 135.773 26.7692C136.215 27.0128 136.553 27.2912 136.787 27.6044C137.026 27.9126 137.209 28.1662 137.339 28.3651H137.518V26.5455H139.218V38.3281C139.218 39.3125 138.994 40.1129 138.547 40.7294C138.104 41.3509 137.508 41.8058 136.757 42.0941C136.011 42.3874 135.181 42.5341 134.266 42.5341ZM134.207 36.2401C134.913 36.2401 135.509 36.0785 135.996 35.7553C136.484 35.4322 136.854 34.9673 137.108 34.3608C137.361 33.7543 137.488 33.0284 137.488 32.1832C137.488 31.358 137.364 30.6296 137.115 29.9982C136.866 29.3668 136.499 28.8722 136.011 28.5142C135.524 28.1562 134.923 27.9773 134.207 27.9773C133.461 27.9773 132.839 28.1662 132.342 28.544C131.85 28.9219 131.48 29.429 131.231 30.0653C130.988 30.7017 130.866 31.4077 130.866 32.1832C130.866 32.9787 130.99 33.6822 131.239 34.2937C131.492 34.9002 131.865 35.3775 132.357 35.7255C132.854 36.0685 133.471 36.2401 134.207 36.2401ZM145.17 38V26.5455H146.93V38H145.17ZM146.064 24.6364C145.721 24.6364 145.426 24.5195 145.177 24.2859C144.933 24.0522 144.812 23.7713 144.812 23.4432C144.812 23.1151 144.933 22.8342 145.177 22.6005C145.426 22.3668 145.721 22.25 146.064 22.25C146.408 22.25 146.701 22.3668 146.944 22.6005C147.193 22.8342 147.317 23.1151 147.317 23.4432C147.317 23.7713 147.193 24.0522 146.944 24.2859C146.701 24.5195 146.408 24.6364 146.064 24.6364ZM152.883 38V26.5455H154.583V28.2756H154.703C154.911 27.7088 155.289 27.2489 155.836 26.896C156.383 26.543 156.999 26.3665 157.686 26.3665C157.815 26.3665 157.976 26.369 158.17 26.3739C158.364 26.3789 158.511 26.3864 158.61 26.3963V28.1861C158.551 28.1712 158.414 28.1488 158.2 28.119C157.991 28.0842 157.77 28.0668 157.536 28.0668C156.98 28.0668 156.482 28.1836 156.045 28.4173C155.612 28.646 155.269 28.9641 155.016 29.3718C154.767 29.7745 154.643 30.2344 154.643 30.7514V38H152.883ZM163.426 38V26.5455H165.186V38H163.426ZM164.321 24.6364C163.978 24.6364 163.682 24.5195 163.434 24.2859C163.19 24.0522 163.068 23.7713 163.068 23.4432C163.068 23.1151 163.19 22.8342 163.434 22.6005C163.682 22.3668 163.978 22.25 164.321 22.25C164.664 22.25 164.958 22.3668 165.201 22.6005C165.45 22.8342 165.574 23.1151 165.574 23.4432C165.574 23.7713 165.45 24.0522 165.201 24.2859C164.958 24.5195 164.664 24.6364 164.321 24.6364Z" fill="#333333"/>
<path d="M65.4801 3.09091H66.8011V10.3139C66.8011 11.0597 66.6254 11.7255 66.2738 12.3114C65.9258 12.8938 65.4339 13.3537 64.7983 13.6911C64.1626 14.0249 63.4169 14.1918 62.5611 14.1918C61.7053 14.1918 60.9595 14.0249 60.3239 13.6911C59.6882 13.3537 59.1946 12.8938 58.843 12.3114C58.495 11.7255 58.321 11.0597 58.321 10.3139V3.09091H59.642V10.2074C59.642 10.7401 59.7592 11.2141 59.9936 11.6296C60.228 12.0415 60.5618 12.3665 60.995 12.6044C61.4318 12.8388 61.9538 12.956 62.5611 12.956C63.1683 12.956 63.6903 12.8388 64.1271 12.6044C64.5639 12.3665 64.8977 12.0415 65.1286 11.6296C65.3629 11.2141 65.4801 10.7401 65.4801 10.2074V3.09091ZM73.6102 3.09091V14H72.2892V3.09091H73.6102ZM82.795 2.57954L79.2794 15.6406H78.1288L81.6444 2.57954H82.795ZM94.4647 3.09091H95.7857V10.3139C95.7857 11.0597 95.6099 11.7255 95.2584 12.3114C94.9104 12.8938 94.4185 13.3537 93.7829 13.6911C93.1472 14.0249 92.4015 14.1918 91.5456 14.1918C90.6898 14.1918 89.9441 14.0249 89.3084 13.6911C88.6728 13.3537 88.1792 12.8938 87.8276 12.3114C87.4796 11.7255 87.3056 11.0597 87.3056 10.3139V3.09091H88.6266V10.2074C88.6266 10.7401 88.7438 11.2141 88.9782 11.6296C89.2126 12.0415 89.5464 12.3665 89.9796 12.6044C90.4164 12.8388 90.9384 12.956 91.5456 12.956C92.1529 12.956 92.6749 12.8388 93.1117 12.6044C93.5485 12.3665 93.8823 12.0415 94.1131 11.6296C94.3475 11.2141 94.4647 10.7401 94.4647 10.2074V3.09091ZM101.913 3.09091L104.725 7.62926H104.811L107.623 3.09091H109.179L105.748 8.54545L109.179 14H107.623L104.811 9.54688H104.725L101.913 14H100.358L103.873 8.54545L100.358 3.09091H101.913Z" fill="#333333"/>
<line y1="9.5" x2="46" y2="9.5" stroke="#333333"/>
<line x1="121" y1="9.5" x2="167" y2="9.5" stroke="#333333"/>
</svg>
