<svg width="161" height="59" viewBox="0 0 161 59" fill="none" xmlns="http://www.w3.org/2000/svg">
<path d="M3.76172 45H1.04297C0.980469 45 0.949219 44.9609 0.949219 44.8828L0.996094 28.3945C0.996094 28.332 1.02734 28.3008 1.08984 28.3008H4.01953C4.08203 28.3008 4.13672 28.332 4.18359 28.3945L6.375 31.5586L8.55469 28.3945C8.60156 28.332 8.66016 28.3008 8.73047 28.3008H11.6719C11.7422 28.3008 11.7773 28.332 11.7773 28.3945L11.8242 44.8828C11.8242 44.9609 11.793 45 11.7305 45H9.01172C8.94922 45 8.91797 44.9609 8.91797 44.8828L8.89453 32.6367L6.375 36.293L3.87891 32.6367L3.85547 44.8828C3.85547 44.9609 3.82422 45 3.76172 45ZM19.7958 45H17.077C16.9989 45 16.9598 44.9609 16.9598 44.8828L16.9833 28.3945C16.9833 28.332 17.0145 28.3008 17.077 28.3008H19.7723C19.8348 28.3008 19.8661 28.332 19.8661 28.3945L19.8895 44.8828C19.8895 44.9609 19.8583 45 19.7958 45ZM30.24 45H27.3337C27.2634 45 27.2244 44.9609 27.2166 44.8828L24.3806 28.3945C24.365 28.332 24.3884 28.3008 24.4509 28.3008H27.1462C27.2087 28.3008 27.2478 28.332 27.2634 28.3945L28.7986 39.2344L30.3806 28.3945C30.3962 28.332 30.4431 28.3008 30.5212 28.3008H32.6892C32.7517 28.3008 32.7908 28.332 32.8064 28.3945L34.365 39.2344L35.9236 28.3945C35.9392 28.332 35.9783 28.3008 36.0408 28.3008H38.7127C38.7908 28.3008 38.822 28.332 38.8064 28.3945L35.947 44.8828C35.9392 44.9141 35.9158 44.9414 35.8767 44.9648L35.8298 45H32.9236C32.8767 45 32.8377 44.9609 32.8064 44.8828L31.5759 36.2695L30.3572 44.8828C30.3494 44.9609 30.3103 45 30.24 45ZM42.5241 44.8828L45.5006 28.3945C45.5163 28.332 45.5553 28.3008 45.6178 28.3008H49.0983C49.1608 28.3008 49.1998 28.332 49.2155 28.3945L52.0748 44.8828C52.0827 44.9609 52.0514 45 51.9811 45H49.3209C49.2428 45 49.1998 44.9609 49.192 44.8828L48.9342 43.125H45.6647L45.4069 44.8828C45.3991 44.9609 45.36 45 45.2897 45H42.6178C42.5553 45 42.5241 44.9609 42.5241 44.8828ZM47.4694 33.8203L47.3288 32.9297L47.2233 33.8203L46.1452 40.5586H48.4538L47.4694 33.8203ZM68.8617 45H66.143C66.0805 45 66.0492 44.9609 66.0492 44.8828L66.0961 28.418C66.0961 28.3398 66.1273 28.3008 66.1898 28.3008H68.8852C68.9477 28.3008 68.9789 28.3398 68.9789 28.418V34.1016L72.7406 28.3945C72.8031 28.332 72.8617 28.3008 72.9164 28.3008H75.6703C75.7406 28.3008 75.7562 28.332 75.7172 28.3945L71.5687 35.0156L76.2211 44.9062C76.2602 44.9688 76.2211 45 76.1039 45H73.1742C73.0961 45 73.0492 44.9688 73.0336 44.9062L69.7875 37.8516L68.9555 39.1641V44.8828C68.9555 44.9609 68.9242 45 68.8617 45ZM79.6106 44.8828L82.5872 28.3945C82.6028 28.332 82.6419 28.3008 82.7044 28.3008H86.1848C86.2473 28.3008 86.2864 28.332 86.302 28.3945L89.1614 44.8828C89.1692 44.9609 89.138 45 89.0677 45H86.4075C86.3294 45 86.2864 44.9609 86.2786 44.8828L86.0208 43.125H82.7513L82.4934 44.8828C82.4856 44.9609 82.4466 45 82.3763 45H79.7044C79.6419 45 79.6106 44.9609 79.6106 44.8828ZM84.5559 33.8203L84.4153 32.9297L84.3098 33.8203L83.2317 40.5586H85.5403L84.5559 33.8203ZM98.9025 45H96.1955C96.1252 45 96.09 44.9609 96.09 44.8828V31.1953H92.9728C92.8947 31.1953 92.8556 31.1562 92.8556 31.0781L92.8791 28.3945C92.8791 28.332 92.9103 28.3008 92.9728 28.3008H102.09C102.176 28.3008 102.219 28.332 102.219 28.3945V31.0781C102.219 31.1562 102.188 31.1953 102.125 31.1953H98.9728L98.9962 44.8828C98.9962 44.9609 98.965 45 98.9025 45ZM105.702 44.8828L108.679 28.3945C108.694 28.332 108.733 28.3008 108.796 28.3008H112.276C112.339 28.3008 112.378 28.332 112.394 28.3945L115.253 44.8828C115.261 44.9609 115.23 45 115.159 45H112.499C112.421 45 112.378 44.9609 112.37 44.8828L112.112 43.125H108.843L108.585 44.8828C108.577 44.9609 108.538 45 108.468 45H105.796C105.733 45 105.702 44.9609 105.702 44.8828ZM110.647 33.8203L110.507 32.9297L110.401 33.8203L109.323 40.5586H111.632L110.647 33.8203ZM124.268 45.2344C123.4 45.2344 122.619 45.0195 121.924 44.5898C121.221 44.1602 120.654 43.582 120.225 42.8555C119.803 42.1289 119.592 41.3164 119.592 40.418V32.8125C119.592 31.9375 119.807 31.1406 120.236 30.4219C120.658 29.6953 121.225 29.1172 121.935 28.6875C122.646 28.25 123.424 28.0312 124.268 28.0312C125.15 28.0312 125.947 28.2422 126.658 28.6641C127.369 29.0938 127.932 29.668 128.346 30.3867C128.768 31.1055 128.978 31.9141 128.978 32.8125V33.9141C128.978 33.9766 128.939 34.0078 128.861 34.0078H126.166C126.103 34.0078 126.072 33.9766 126.072 33.9141V33C126.072 32.3906 125.9 31.8867 125.557 31.4883C125.213 31.0898 124.783 30.8906 124.268 30.8906C123.807 30.8906 123.396 31.082 123.037 31.4648C122.678 31.8477 122.498 32.2969 122.498 32.8125V40.418C122.498 40.9414 122.674 41.3945 123.025 41.7773C123.377 42.1523 123.791 42.3398 124.268 42.3398C124.783 42.3398 125.213 42.1562 125.557 41.7891C125.9 41.4141 126.072 40.957 126.072 40.418V39.2344H124.396C124.31 39.2344 124.268 39.1953 124.268 39.1172V36.4336C124.268 36.3555 124.31 36.3164 124.396 36.3164H128.885C128.947 36.3164 128.978 36.3555 128.978 36.4336V40.418C128.978 41.3164 128.768 42.1289 128.346 42.8555C127.916 43.582 127.35 44.1602 126.646 44.5898C125.943 45.0195 125.15 45.2344 124.268 45.2344ZM136.634 45H133.915C133.837 45 133.798 44.9609 133.798 44.8828L133.821 28.3945C133.821 28.332 133.852 28.3008 133.915 28.3008H136.61C136.673 28.3008 136.704 28.332 136.704 28.3945L136.727 44.8828C136.727 44.9609 136.696 45 136.634 45ZM144.769 45H142.05C141.988 45 141.957 44.9609 141.957 44.8828L142.004 28.3945C142.004 28.332 142.035 28.3008 142.097 28.3008H146.949C147.816 28.3008 148.613 28.5117 149.34 28.9336C150.066 29.3555 150.644 29.9219 151.074 30.6328C151.511 31.3438 151.73 32.1484 151.73 33.0469C151.73 33.6328 151.64 34.1641 151.461 34.6406C151.281 35.1172 151.07 35.5195 150.828 35.8477C150.593 36.1758 150.379 36.418 150.183 36.5742C151.05 37.5352 151.484 38.6641 151.484 39.9609L151.507 44.8828C151.507 44.9609 151.468 45 151.39 45H148.672C148.609 45 148.578 44.9766 148.578 44.9297V39.9609C148.578 39.3828 148.375 38.8828 147.968 38.4609C147.562 38.0391 147.062 37.8281 146.468 37.8281H144.886L144.863 44.8828C144.863 44.9609 144.832 45 144.769 45ZM146.949 31.1719H144.886V34.9453H146.949C147.441 34.9453 147.879 34.7617 148.261 34.3945C148.652 34.0273 148.847 33.5781 148.847 33.0469C148.847 32.5391 148.66 32.1016 148.285 31.7344C147.91 31.3594 147.465 31.1719 146.949 31.1719ZM159.491 45H156.772C156.694 45 156.655 44.9609 156.655 44.8828L156.678 28.3945C156.678 28.332 156.71 28.3008 156.772 28.3008H159.467C159.53 28.3008 159.561 28.332 159.561 28.3945L159.585 44.8828C159.585 44.9609 159.553 45 159.491 45Z" fill="#333333"/>
<path d="M61.0254 22.1758C60.3926 22.1758 59.8066 22.0117 59.2676 21.6836C58.7285 21.3555 58.2979 20.916 57.9756 20.3652C57.6592 19.8086 57.501 19.2021 57.501 18.5459L57.5361 9.5459C57.5361 9.49902 57.5596 9.47559 57.6064 9.47559H59.6279C59.6748 9.47559 59.6982 9.49902 59.6982 9.5459V18.5459C59.6982 18.9502 59.8271 19.2959 60.085 19.583C60.3428 19.8643 60.6562 20.0049 61.0254 20.0049C61.4121 20.0049 61.7344 19.8643 61.9922 19.583C62.25 19.2959 62.3789 18.9502 62.3789 18.5459V9.5459C62.3789 9.49902 62.4023 9.47559 62.4492 9.47559H64.4707C64.5176 9.47559 64.541 9.49902 64.541 9.5459L64.5762 18.5459C64.5762 19.208 64.418 19.8174 64.1016 20.374C63.7793 20.9248 63.3516 21.3643 62.8184 21.6924C62.2852 22.0146 61.6875 22.1758 61.0254 22.1758ZM71.5382 22H69.4991C69.4405 22 69.4112 21.9707 69.4112 21.9121L69.4288 9.5459C69.4288 9.49902 69.4522 9.47559 69.4991 9.47559H71.5206C71.5675 9.47559 71.5909 9.49902 71.5909 9.5459L71.6085 21.9121C71.6085 21.9707 71.585 22 71.5382 22ZM78.3595 22H76.5226C76.4699 22 76.4464 21.9707 76.4523 21.9121L78.6847 9.5459C78.6964 9.49902 78.7257 9.47559 78.7726 9.47559H80.6447C80.7033 9.47559 80.7267 9.49902 80.715 9.5459L78.4474 21.9121C78.4416 21.9707 78.4123 22 78.3595 22ZM88.7229 22.1758C88.0901 22.1758 87.5041 22.0117 86.9651 21.6836C86.426 21.3555 85.9954 20.916 85.6731 20.3652C85.3567 19.8086 85.1985 19.2021 85.1985 18.5459L85.2336 9.5459C85.2336 9.49902 85.2571 9.47559 85.3039 9.47559H87.3254C87.3723 9.47559 87.3957 9.49902 87.3957 9.5459V18.5459C87.3957 18.9502 87.5246 19.2959 87.7825 19.583C88.0403 19.8643 88.3538 20.0049 88.7229 20.0049C89.1096 20.0049 89.4319 19.8643 89.6897 19.583C89.9475 19.2959 90.0764 18.9502 90.0764 18.5459V9.5459C90.0764 9.49902 90.0998 9.47559 90.1467 9.47559H92.1682C92.2151 9.47559 92.2385 9.49902 92.2385 9.5459L92.2737 18.5459C92.2737 19.208 92.1155 19.8174 91.7991 20.374C91.4768 20.9248 91.0491 21.3643 90.5159 21.6924C89.9827 22.0146 89.385 22.1758 88.7229 22.1758ZM98.5765 22H96.555C96.514 22 96.4964 21.9707 96.5023 21.9121L98.5589 15.4873L96.5374 9.5459C96.5257 9.49902 96.5433 9.47559 96.5902 9.47559H98.6116C98.6702 9.47559 98.7054 9.49902 98.7171 9.5459L99.9212 13.8262L101.143 9.5459C101.155 9.49902 101.193 9.47559 101.257 9.47559H103.252C103.299 9.47559 103.317 9.49902 103.305 9.5459L101.292 15.4697L103.323 21.9121C103.346 21.9707 103.328 22 103.27 22H101.257C101.204 22 101.166 21.9707 101.143 21.9121L99.9212 17.2627L98.682 21.9121C98.6761 21.9707 98.6409 22 98.5765 22Z" fill="#333333"/>
<line y1="16.5" x2="49" y2="16.5" stroke="#333333"/>
<line x1="112" y1="16.5" x2="161" y2="16.5" stroke="#333333"/>
</svg>
