<svg width="256" height="68" viewBox="0 0 256 68" fill="none" xmlns="http://www.w3.org/2000/svg">
<line y1="17.5" x2="102" y2="17.5" stroke="black"/>
<line x1="154" y1="17.5" x2="256" y2="17.5" stroke="black"/>
<path d="M122.83 9.44V8.6H128.65V9.44L127 9.65C126.68 9.69 126.49 9.78 126.43 9.92C126.37 10.04 126.34 10.44 126.34 11.12V22.07C126.34 24.47 125.83 26.28 124.81 27.5C123.81 28.7 122.27 29.3 120.19 29.3C117.77 29.3 115.82 28.64 114.34 27.32C112.86 26 112.12 24.1 112.12 21.62V11.12C112.12 10.44 112.09 10.04 112.03 9.92C111.97 9.78 111.78 9.69 111.46 9.65L109.81 9.44V8.6H118.03V9.44L116.38 9.65C116.06 9.69 115.87 9.78 115.81 9.92C115.75 10.04 115.72 10.44 115.72 11.12V21.83C115.72 24.07 116.13 25.69 116.95 26.69C117.77 27.69 118.94 28.19 120.46 28.19C121.94 28.19 123.09 27.72 123.91 26.78C124.73 25.82 125.14 24.27 125.14 22.13V11.12C125.14 10.44 125.11 10.04 125.05 9.92C124.99 9.78 124.8 9.69 124.48 9.65L122.83 9.44ZM135.448 28.16V29H129.538V28.16L131.188 27.95C131.388 27.91 131.538 27.87 131.638 27.83C131.758 27.77 131.888 27.65 132.028 27.47C132.188 27.27 132.408 26.94 132.688 26.48L137.218 19.28L132.778 11.12C132.538 10.66 132.358 10.34 132.238 10.16C132.118 9.96 131.998 9.83 131.878 9.77C131.778 9.71 131.618 9.67 131.398 9.65L129.748 9.44V8.6H138.328V9.44L136.678 9.65C136.378 9.69 136.228 9.78 136.228 9.92C136.228 10.04 136.408 10.44 136.768 11.12L139.768 16.64L143.218 11.12C143.638 10.44 143.848 10.04 143.848 9.92C143.868 9.78 143.718 9.69 143.398 9.65L141.748 9.44V8.6H147.658V9.44L146.008 9.65C145.808 9.67 145.648 9.71 145.528 9.77C145.428 9.83 145.308 9.96 145.168 10.16C145.028 10.34 144.808 10.66 144.508 11.12L140.368 17.75L145.078 26.48C145.318 26.92 145.498 27.24 145.618 27.44C145.738 27.64 145.858 27.77 145.978 27.83C146.098 27.87 146.258 27.91 146.458 27.95L148.108 28.16V29H139.558V28.16L141.208 27.95C141.528 27.91 141.688 27.83 141.688 27.71C141.688 27.57 141.498 27.16 141.118 26.48L137.788 20.36L133.978 26.48C133.558 27.16 133.338 27.57 133.318 27.71C133.318 27.83 133.478 27.91 133.798 27.95L135.448 28.16Z" fill="#333333"/>
<path d="M28.708 60.272V61H21.96V60.272L23.5 60.104C23.7987 60.0667 23.976 59.992 24.032 59.88C24.088 59.7493 24.116 59.3667 24.116 58.732V43.556L18.292 58.76H16.388L10.536 43.556V58.732C10.536 59.3667 10.564 59.7493 10.62 59.88C10.676 59.992 10.8533 60.0667 11.152 60.104L12.692 60.272V61H7.344V60.272L8.884 60.104C9.18267 60.0667 9.36 59.992 9.416 59.88C9.472 59.7493 9.5 59.3667 9.5 58.732V44.228C9.5 43.5933 9.472 43.22 9.416 43.108C9.36 42.9773 9.18267 42.8933 8.884 42.856L7.344 42.716V41.96H12.468L18.096 56.66L23.724 41.96H28.708V42.716L27.168 42.856C26.8693 42.8933 26.692 42.9773 26.636 43.108C26.58 43.22 26.552 43.5933 26.552 44.228V58.732C26.552 59.3667 26.58 59.7493 26.636 59.88C26.692 59.992 26.8693 60.0667 27.168 60.104L28.708 60.272ZM39.6658 44.004C39.2178 44.004 38.8445 43.864 38.5458 43.584C38.2658 43.2853 38.1258 42.9027 38.1258 42.436C38.1258 41.988 38.2658 41.624 38.5458 41.344C38.8445 41.064 39.2178 40.924 39.6658 40.924C40.1138 40.924 40.4778 41.064 40.7578 41.344C41.0565 41.624 41.2058 41.988 41.2058 42.436C41.2058 42.9027 41.0565 43.2853 40.7578 43.584C40.4778 43.864 40.1138 44.004 39.6658 44.004ZM36.3898 47.896V47.14H40.8418V58.732C40.8418 59.3853 40.8698 59.768 40.9258 59.88C40.9818 59.992 41.1592 60.0667 41.4578 60.104L42.9978 60.272V61H36.3898V60.272L37.9298 60.104C38.2285 60.0667 38.4058 59.992 38.4618 59.88C38.5178 59.768 38.5458 59.3853 38.5458 58.732V49.408C38.5458 48.7547 38.5178 48.372 38.4618 48.26C38.4058 48.148 38.2285 48.0733 37.9298 48.036L36.3898 47.896ZM68.2002 49.24L65.0643 61H63.2443L59.5762 49.436L55.9082 61H54.1722L51.0642 49.24C50.9336 48.6987 50.8216 48.372 50.7282 48.26C50.6536 48.148 50.4669 48.0733 50.1682 48.036L48.7402 47.896V47.14H55.0962V47.896L53.6402 48.036C53.3416 48.0733 53.1736 48.148 53.1362 48.26C53.1176 48.372 53.1829 48.6987 53.3322 49.24L55.7402 58.48L59.2963 47.14H61.1163L64.7282 58.648L67.1642 49.24C67.3136 48.6987 67.3696 48.372 67.3323 48.26C67.3136 48.148 67.1549 48.0733 66.8563 48.036L65.4003 47.896V47.14H70.5243V47.896L69.0963 48.036C68.8163 48.0733 68.6296 48.148 68.5363 48.26C68.4616 48.372 68.3496 48.6987 68.2002 49.24ZM88.0151 61.196C86.5591 61.196 85.7004 60.524 85.4391 59.18C84.7857 59.9267 84.0671 60.468 83.2831 60.804C82.4991 61.1213 81.7244 61.28 80.9591 61.28C79.6524 61.28 78.6911 60.916 78.0751 60.188C77.4591 59.46 77.1511 58.5827 77.1511 57.556C77.1511 56.4547 77.5244 55.5867 78.2711 54.952C79.0364 54.2987 80.3524 53.972 82.2191 53.972H85.3831V51.704C85.3831 50.2107 85.1217 49.184 84.5991 48.624C84.0951 48.0453 83.4044 47.756 82.5271 47.756C81.9671 47.756 81.4631 47.868 81.0151 48.092C80.5671 48.316 80.2404 48.7267 80.0351 49.324C79.8484 49.9027 79.8297 50.752 79.9791 51.872L77.7671 51.536C77.6737 50.6587 77.7857 49.8747 78.1031 49.184C78.4391 48.4747 78.9804 47.9147 79.7271 47.504C80.4924 47.0747 81.4444 46.86 82.5831 46.86C83.9457 46.86 84.9911 47.0933 85.7191 47.56C86.4471 48.008 86.9511 48.596 87.2311 49.324C87.5297 50.052 87.6791 50.8453 87.6791 51.704V58.004C87.6791 58.956 87.7817 59.5533 87.9871 59.796C88.2111 60.0387 88.4537 60.16 88.7151 60.16C88.8831 60.16 89.0604 60.1227 89.2471 60.048C89.4337 59.9547 89.6391 59.8147 89.8631 59.628L90.3671 60.328C90.0871 60.5707 89.7511 60.776 89.3591 60.944C88.9857 61.112 88.5377 61.196 88.0151 61.196ZM81.7431 60.104C82.2657 60.104 82.8257 59.964 83.4231 59.684C84.0391 59.3853 84.6924 58.7973 85.3831 57.92V54.868H82.5271C81.4817 54.868 80.7164 55.0827 80.2311 55.512C79.7644 55.9227 79.5311 56.5667 79.5311 57.444C79.5311 58.284 79.7084 58.9373 80.0631 59.404C80.4364 59.8707 80.9964 60.104 81.7431 60.104ZM108.948 42.688V41.96H115.696V42.688L114.156 42.856C113.857 42.8747 113.68 42.9493 113.624 43.08C113.568 43.192 113.54 43.5747 113.54 44.228V52.46L120.54 44.06C121.007 43.5187 121.24 43.192 121.24 43.08C121.259 42.9493 121.109 42.8747 120.792 42.856L119.364 42.688V41.96H124.684V42.688L123.256 42.856C123.069 42.8747 122.92 42.912 122.808 42.968C122.696 43.0053 122.565 43.108 122.416 43.276C122.285 43.4253 122.061 43.6867 121.744 44.06L117.376 49.324L122.696 58.732C122.939 59.1613 123.116 59.4693 123.228 59.656C123.359 59.8427 123.489 59.964 123.62 60.02C123.751 60.0573 123.928 60.0853 124.152 60.104L125.496 60.272V61H121.128L115.752 51.284L113.54 53.916V58.732C113.54 59.3853 113.568 59.768 113.624 59.88C113.68 59.992 113.857 60.0667 114.156 60.104L115.696 60.272V61H108.948V60.272L110.488 60.104C110.787 60.0667 110.964 59.992 111.02 59.88C111.076 59.768 111.104 59.3853 111.104 58.732V44.228C111.104 43.5747 111.076 43.192 111.02 43.08C110.964 42.9493 110.787 42.8747 110.488 42.856L108.948 42.688ZM143.459 61.196C142.003 61.196 141.145 60.524 140.883 59.18C140.23 59.9267 139.511 60.468 138.727 60.804C137.943 61.1213 137.169 61.28 136.403 61.28C135.097 61.28 134.135 60.916 133.519 60.188C132.903 59.46 132.595 58.5827 132.595 57.556C132.595 56.4547 132.969 55.5867 133.715 54.952C134.481 54.2987 135.797 53.972 137.663 53.972H140.827V51.704C140.827 50.2107 140.566 49.184 140.043 48.624C139.539 48.0453 138.849 47.756 137.971 47.756C137.411 47.756 136.907 47.868 136.459 48.092C136.011 48.316 135.685 48.7267 135.479 49.324C135.293 49.9027 135.274 50.752 135.423 51.872L133.211 51.536C133.118 50.6587 133.23 49.8747 133.547 49.184C133.883 48.4747 134.425 47.9147 135.171 47.504C135.937 47.0747 136.889 46.86 138.027 46.86C139.39 46.86 140.435 47.0933 141.163 47.56C141.891 48.008 142.395 48.596 142.675 49.324C142.974 50.052 143.123 50.8453 143.123 51.704V58.004C143.123 58.956 143.226 59.5533 143.431 59.796C143.655 60.0387 143.898 60.16 144.159 60.16C144.327 60.16 144.505 60.1227 144.691 60.048C144.878 59.9547 145.083 59.8147 145.307 59.628L145.811 60.328C145.531 60.5707 145.195 60.776 144.803 60.944C144.43 61.112 143.982 61.196 143.459 61.196ZM137.187 60.104C137.71 60.104 138.27 59.964 138.867 59.684C139.483 59.3853 140.137 58.7973 140.827 57.92V54.868H137.971C136.926 54.868 136.161 55.0827 135.675 55.512C135.209 55.9227 134.975 56.5667 134.975 57.444C134.975 58.284 135.153 58.9373 135.507 59.404C135.881 59.8707 136.441 60.104 137.187 60.104ZM161.605 58.144C161.325 59.2267 160.886 60.02 160.289 60.524C159.691 61.028 158.926 61.28 157.993 61.28C157.097 61.28 156.369 61.084 155.809 60.692C155.249 60.2813 154.838 59.7493 154.577 59.096C154.315 58.4427 154.185 57.7613 154.185 57.052V49.408C154.185 48.7547 154.157 48.372 154.101 48.26C154.063 48.148 153.886 48.0733 153.569 48.036L152.029 47.896V47.14H154.185V43.472L156.481 42.996V47.14H161.045V48.036H156.481V57.276C156.481 58.452 156.639 59.264 156.957 59.712C157.293 60.16 157.731 60.384 158.273 60.384C158.814 60.384 159.225 60.1787 159.505 59.768C159.803 59.3573 160.018 58.6853 160.149 57.752L161.605 58.144ZM180.049 61.196C178.593 61.196 177.734 60.524 177.473 59.18C176.819 59.9267 176.101 60.468 175.317 60.804C174.533 61.1213 173.758 61.28 172.993 61.28C171.686 61.28 170.725 60.916 170.109 60.188C169.493 59.46 169.185 58.5827 169.185 57.556C169.185 56.4547 169.558 55.5867 170.305 54.952C171.07 54.2987 172.386 53.972 174.253 53.972H177.417V51.704C177.417 50.2107 177.155 49.184 176.633 48.624C176.129 48.0453 175.438 47.756 174.561 47.756C174.001 47.756 173.497 47.868 173.049 48.092C172.601 48.316 172.274 48.7267 172.069 49.324C171.882 49.9027 171.863 50.752 172.013 51.872L169.801 51.536C169.707 50.6587 169.819 49.8747 170.137 49.184C170.473 48.4747 171.014 47.9147 171.761 47.504C172.526 47.0747 173.478 46.86 174.617 46.86C175.979 46.86 177.025 47.0933 177.753 47.56C178.481 48.008 178.985 48.596 179.265 49.324C179.563 50.052 179.713 50.8453 179.713 51.704V58.004C179.713 58.956 179.815 59.5533 180.021 59.796C180.245 60.0387 180.487 60.16 180.749 60.16C180.917 60.16 181.094 60.1227 181.281 60.048C181.467 59.9547 181.673 59.8147 181.897 59.628L182.401 60.328C182.121 60.5707 181.785 60.776 181.393 60.944C181.019 61.112 180.571 61.196 180.049 61.196ZM173.777 60.104C174.299 60.104 174.859 59.964 175.457 59.684C176.073 59.3853 176.726 58.7973 177.417 57.92V54.868H174.561C173.515 54.868 172.75 55.0827 172.265 55.512C171.798 55.9227 171.565 56.5667 171.565 57.444C171.565 58.284 171.742 58.9373 172.097 59.404C172.47 59.8707 173.03 60.104 173.777 60.104ZM202.002 62.624C202.002 64.1173 201.451 65.256 200.35 66.04C199.267 66.8427 197.755 67.244 195.814 67.244C193.686 67.244 192.127 66.8707 191.138 66.124C190.148 65.396 189.635 64.472 189.598 63.352L191.67 62.932C191.595 63.9587 191.866 64.78 192.482 65.396C193.116 66.0307 194.227 66.348 195.814 66.348C197.232 66.348 198.371 66.0867 199.23 65.564C200.107 65.0413 200.546 64.276 200.546 63.268C200.546 62.5213 200.294 61.9613 199.79 61.588C199.286 61.2147 198.455 61.028 197.298 61.028H193.966C192.715 61.028 191.838 60.7667 191.334 60.244C190.83 59.7027 190.578 59.1053 190.578 58.452C190.578 57.9107 190.708 57.4067 190.97 56.94C191.25 56.4547 191.688 55.9787 192.286 55.512C191.539 55.1573 190.932 54.644 190.466 53.972C189.999 53.2813 189.766 52.4507 189.766 51.48C189.766 50.4533 189.999 49.604 190.466 48.932C190.951 48.2413 191.586 47.728 192.37 47.392C193.172 47.0373 194.059 46.86 195.03 46.86H195.506C196.532 46.86 197.447 47.0467 198.25 47.42L202.31 46.02L202.618 48.12H199.342C199.771 48.4933 200.107 48.96 200.35 49.52C200.611 50.08 200.742 50.7333 200.742 51.48C200.742 52.4693 200.499 53.3093 200.014 54C199.547 54.6907 198.922 55.2133 198.138 55.568C197.354 55.904 196.476 56.072 195.506 56.072H195.03C194.712 56.072 194.404 56.0533 194.106 56.016C193.807 55.9787 193.518 55.9227 193.238 55.848C192.827 56.128 192.528 56.4173 192.342 56.716C192.174 57.0147 192.09 57.3227 192.09 57.64C192.09 58.0133 192.22 58.312 192.482 58.536C192.762 58.76 193.2 58.872 193.798 58.872H197.438C198.912 58.872 200.042 59.1893 200.826 59.824C201.61 60.4587 202.002 61.392 202.002 62.624ZM195.506 55.176C196.01 55.176 196.467 55.064 196.878 54.84C197.307 54.616 197.652 54.2427 197.914 53.72C198.175 53.1787 198.306 52.432 198.306 51.48C198.306 50.5093 198.175 49.7627 197.914 49.24C197.652 48.6987 197.307 48.316 196.878 48.092C196.467 47.868 196.01 47.756 195.506 47.756H195.03C194.526 47.756 194.059 47.868 193.63 48.092C193.2 48.316 192.855 48.6987 192.594 49.24C192.332 49.7627 192.202 50.5093 192.202 51.48C192.202 52.432 192.332 53.1787 192.594 53.72C192.855 54.2427 193.2 54.616 193.63 54.84C194.059 55.064 194.526 55.176 195.03 55.176H195.506ZM212.671 44.004C212.223 44.004 211.85 43.864 211.551 43.584C211.271 43.2853 211.131 42.9027 211.131 42.436C211.131 41.988 211.271 41.624 211.551 41.344C211.85 41.064 212.223 40.924 212.671 40.924C213.119 40.924 213.483 41.064 213.763 41.344C214.062 41.624 214.211 41.988 214.211 42.436C214.211 42.9027 214.062 43.2853 213.763 43.584C213.483 43.864 213.119 44.004 212.671 44.004ZM209.395 47.896V47.14H213.847V58.732C213.847 59.3853 213.875 59.768 213.931 59.88C213.987 59.992 214.164 60.0667 214.463 60.104L216.003 60.272V61H209.395V60.272L210.935 60.104C211.234 60.0667 211.411 59.992 211.467 59.88C211.523 59.768 211.551 59.3853 211.551 58.732V49.408C211.551 48.7547 211.523 48.372 211.467 48.26C211.411 48.148 211.234 48.0733 210.935 48.036L209.395 47.896ZM223.082 47.896V47.14H227.394V49.38C228.047 48.5027 228.701 47.868 229.354 47.476C230.026 47.0653 230.707 46.86 231.398 46.86C231.995 46.86 232.555 47.0373 233.078 47.392C233.601 47.7467 234.039 48.316 234.394 49.1L232.574 50.192C232.294 49.52 231.977 49.0533 231.622 48.792C231.267 48.5307 230.875 48.4 230.446 48.4C229.979 48.4 229.513 48.5493 229.046 48.848C228.598 49.1467 228.094 49.7067 227.534 50.528V58.732C227.534 59.3853 227.562 59.7773 227.618 59.908C227.674 60.02 227.851 60.0853 228.15 60.104L230.25 60.272V61H223.082V60.272L224.622 60.104C224.921 60.0667 225.098 59.992 225.154 59.88C225.21 59.768 225.238 59.3853 225.238 58.732V49.408C225.238 48.7547 225.21 48.372 225.154 48.26C225.098 48.148 224.921 48.0733 224.622 48.036L223.082 47.896ZM243.983 44.004C243.535 44.004 243.161 43.864 242.863 43.584C242.583 43.2853 242.443 42.9027 242.443 42.436C242.443 41.988 242.583 41.624 242.863 41.344C243.161 41.064 243.535 40.924 243.983 40.924C244.431 40.924 244.795 41.064 245.075 41.344C245.373 41.624 245.523 41.988 245.523 42.436C245.523 42.9027 245.373 43.2853 245.075 43.584C244.795 43.864 244.431 44.004 243.983 44.004ZM240.707 47.896V47.14H245.159V58.732C245.159 59.3853 245.187 59.768 245.243 59.88C245.299 59.992 245.476 60.0667 245.775 60.104L247.315 60.272V61H240.707V60.272L242.247 60.104C242.545 60.0667 242.723 59.992 242.779 59.88C242.835 59.768 242.863 59.3853 242.863 58.732V49.408C242.863 48.7547 242.835 48.372 242.779 48.26C242.723 48.148 242.545 48.0733 242.247 48.036L240.707 47.896Z" fill="#333333"/>
</svg>
