<svg width="173" height="40" viewBox="0 0 173 40" fill="none" xmlns="http://www.w3.org/2000/svg">
<path d="M2.28 35V21H3.5L9.9 31.92H9.26L15.6 21H16.82V35H15.4V23.22H15.74L9.9 33.22H9.2L3.32 23.22H3.7V35H2.28ZM23.6816 35V24.5H25.1016V35H23.6816ZM24.4016 22.18C24.1082 22.18 23.8616 22.08 23.6616 21.88C23.4616 21.68 23.3616 21.44 23.3616 21.16C23.3616 20.88 23.4616 20.6467 23.6616 20.46C23.8616 20.26 24.1082 20.16 24.4016 20.16C24.6949 20.16 24.9416 20.2533 25.1416 20.44C25.3416 20.6267 25.4416 20.86 25.4416 21.14C25.4416 21.4333 25.3416 21.68 25.1416 21.88C24.9549 22.08 24.7082 22.18 24.4016 22.18ZM33.7927 35L29.8327 24.5H31.1927L34.7927 34.24H34.1727L37.8727 24.5H39.0927L42.7527 34.24H42.1327L45.7927 24.5H47.0927L43.1127 35H41.7727L38.2527 25.84H38.6727L35.1327 35H33.7927ZM58.0983 35V32.68L58.0383 32.3V28.42C58.0383 27.5267 57.7849 26.84 57.2783 26.36C56.7849 25.88 56.0449 25.64 55.0583 25.64C54.3783 25.64 53.7316 25.7533 53.1183 25.98C52.5049 26.2067 51.9849 26.5067 51.5583 26.88L50.9183 25.82C51.4516 25.3667 52.0916 25.02 52.8383 24.78C53.5849 24.5267 54.3716 24.4 55.1983 24.4C56.5583 24.4 57.6049 24.74 58.3383 25.42C59.0849 26.0867 59.4583 27.1067 59.4583 28.48V35H58.0983ZM54.4783 35.1C53.6916 35.1 53.0049 34.9733 52.4183 34.72C51.8449 34.4533 51.4049 34.0933 51.0983 33.64C50.7916 33.1733 50.6383 32.64 50.6383 32.04C50.6383 31.4933 50.7649 31 51.0183 30.56C51.2849 30.1067 51.7116 29.7467 52.2983 29.48C52.8983 29.2 53.6983 29.06 54.6983 29.06H58.3183V30.12H54.7383C53.7249 30.12 53.0183 30.3 52.6183 30.66C52.2316 31.02 52.0383 31.4667 52.0383 32C52.0383 32.6 52.2716 33.08 52.7383 33.44C53.2049 33.8 53.8583 33.98 54.6983 33.98C55.4983 33.98 56.1849 33.8 56.7583 33.44C57.3449 33.0667 57.7716 32.5333 58.0383 31.84L58.3583 32.82C58.0916 33.5133 57.6249 34.0667 56.9583 34.48C56.3049 34.8933 55.4783 35.1 54.4783 35.1ZM75.3295 31.52L75.2695 29.72L83.7495 21H85.4495L79.2695 27.48L78.4295 28.38L75.3295 31.52ZM74.0495 35V21H75.5295V35H74.0495ZM84.1095 35L78.0695 28.04L79.0695 26.96L85.8695 35H84.1095ZM96.8748 35V32.68L96.8148 32.3V28.42C96.8148 27.5267 96.5615 26.84 96.0548 26.36C95.5615 25.88 94.8215 25.64 93.8348 25.64C93.1548 25.64 92.5082 25.7533 91.8948 25.98C91.2815 26.2067 90.7615 26.5067 90.3348 26.88L89.6948 25.82C90.2282 25.3667 90.8682 25.02 91.6148 24.78C92.3615 24.5267 93.1482 24.4 93.9748 24.4C95.3348 24.4 96.3815 24.74 97.1148 25.42C97.8615 26.0867 98.2348 27.1067 98.2348 28.48V35H96.8748ZM93.2548 35.1C92.4682 35.1 91.7815 34.9733 91.1948 34.72C90.6215 34.4533 90.1815 34.0933 89.8748 33.64C89.5682 33.1733 89.4148 32.64 89.4148 32.04C89.4148 31.4933 89.5415 31 89.7948 30.56C90.0615 30.1067 90.4882 29.7467 91.0748 29.48C91.6748 29.2 92.4748 29.06 93.4748 29.06H97.0948V30.12H93.5148C92.5015 30.12 91.7948 30.3 91.3948 30.66C91.0082 31.02 90.8148 31.4667 90.8148 32C90.8148 32.6 91.0482 33.08 91.5148 33.44C91.9815 33.8 92.6348 33.98 93.4748 33.98C94.2748 33.98 94.9615 33.8 95.5348 33.44C96.1215 33.0667 96.5482 32.5333 96.8148 31.84L97.1348 32.82C96.8682 33.5133 96.4015 34.0667 95.7348 34.48C95.0815 34.8933 94.2548 35.1 93.2548 35.1ZM108.012 35.1C107.025 35.1 106.265 34.8333 105.732 34.3C105.198 33.7667 104.932 33.0133 104.932 32.04V22.18H106.352V31.96C106.352 32.5733 106.505 33.0467 106.812 33.38C107.132 33.7133 107.585 33.88 108.172 33.88C108.798 33.88 109.318 33.7 109.732 33.34L110.232 34.36C109.952 34.6133 109.612 34.8 109.212 34.92C108.825 35.04 108.425 35.1 108.012 35.1ZM103.052 25.68V24.5H109.552V25.68H103.052ZM121.997 35V32.68L121.937 32.3V28.42C121.937 27.5267 121.683 26.84 121.177 26.36C120.683 25.88 119.943 25.64 118.957 25.64C118.277 25.64 117.63 25.7533 117.017 25.98C116.403 26.2067 115.883 26.5067 115.457 26.88L114.817 25.82C115.35 25.3667 115.99 25.02 116.737 24.78C117.483 24.5267 118.27 24.4 119.097 24.4C120.457 24.4 121.503 24.74 122.237 25.42C122.983 26.0867 123.357 27.1067 123.357 28.48V35H121.997ZM118.377 35.1C117.59 35.1 116.903 34.9733 116.317 34.72C115.743 34.4533 115.303 34.0933 114.997 33.64C114.69 33.1733 114.537 32.64 114.537 32.04C114.537 31.4933 114.663 31 114.917 30.56C115.183 30.1067 115.61 29.7467 116.197 29.48C116.797 29.2 117.597 29.06 118.597 29.06H122.217V30.12H118.637C117.623 30.12 116.917 30.3 116.517 30.66C116.13 31.02 115.937 31.4667 115.937 32C115.937 32.6 116.17 33.08 116.637 33.44C117.103 33.8 117.757 33.98 118.597 33.98C119.397 33.98 120.083 33.8 120.657 33.44C121.243 33.0667 121.67 32.5333 121.937 31.84L122.257 32.82C121.99 33.5133 121.523 34.0667 120.857 34.48C120.203 34.8933 119.377 35.1 118.377 35.1ZM134.294 38.98C133.334 38.98 132.414 38.84 131.534 38.56C130.654 38.28 129.94 37.88 129.394 37.36L130.114 36.28C130.607 36.72 131.214 37.0667 131.934 37.32C132.667 37.5867 133.44 37.72 134.254 37.72C135.587 37.72 136.567 37.4067 137.194 36.78C137.82 36.1667 138.134 35.2067 138.134 33.9V31.28L138.334 29.48L138.194 27.68V24.5H139.554V33.72C139.554 35.5333 139.107 36.86 138.214 37.7C137.334 38.5533 136.027 38.98 134.294 38.98ZM134.034 34.6C133.034 34.6 132.134 34.3867 131.334 33.96C130.534 33.52 129.9 32.9133 129.434 32.14C128.98 31.3667 128.754 30.48 128.754 29.48C128.754 28.48 128.98 27.6 129.434 26.84C129.9 26.0667 130.534 25.4667 131.334 25.04C132.134 24.6133 133.034 24.4 134.034 24.4C134.967 24.4 135.807 24.5933 136.554 24.98C137.3 25.3667 137.894 25.94 138.334 26.7C138.774 27.46 138.994 28.3867 138.994 29.48C138.994 30.5733 138.774 31.5 138.334 32.26C137.894 33.02 137.3 33.6 136.554 34C135.807 34.4 134.967 34.6 134.034 34.6ZM134.174 33.34C134.947 33.34 135.634 33.18 136.234 32.86C136.834 32.5267 137.307 32.0733 137.654 31.5C138 30.9133 138.174 30.24 138.174 29.48C138.174 28.72 138 28.0533 137.654 27.48C137.307 26.9067 136.834 26.46 136.234 26.14C135.634 25.8067 134.947 25.64 134.174 25.64C133.414 25.64 132.727 25.8067 132.114 26.14C131.514 26.46 131.04 26.9067 130.694 27.48C130.36 28.0533 130.194 28.72 130.194 29.48C130.194 30.24 130.36 30.9133 130.694 31.5C131.04 32.0733 131.514 32.5267 132.114 32.86C132.727 33.18 133.414 33.34 134.174 33.34ZM146.105 35V24.5H147.525V35H146.105ZM146.825 22.18C146.532 22.18 146.285 22.08 146.085 21.88C145.885 21.68 145.785 21.44 145.785 21.16C145.785 20.88 145.885 20.6467 146.085 20.46C146.285 20.26 146.532 20.16 146.825 20.16C147.118 20.16 147.365 20.2533 147.565 20.44C147.765 20.6267 147.865 20.86 147.865 21.14C147.865 21.4333 147.765 21.68 147.565 21.88C147.378 22.08 147.132 22.18 146.825 22.18ZM154.076 35V24.5H155.436V27.36L155.296 26.86C155.589 26.06 156.083 25.4533 156.776 25.04C157.469 24.6133 158.329 24.4 159.356 24.4V25.78C159.303 25.78 159.249 25.78 159.196 25.78C159.143 25.7667 159.089 25.76 159.036 25.76C157.929 25.76 157.063 26.1 156.436 26.78C155.809 27.4467 155.496 28.4 155.496 29.64V35H154.076ZM164.547 35V24.5H165.967V35H164.547ZM165.267 22.18C164.974 22.18 164.727 22.08 164.527 21.88C164.327 21.68 164.227 21.44 164.227 21.16C164.227 20.88 164.327 20.6467 164.527 20.46C164.727 20.26 164.974 20.16 165.267 20.16C165.561 20.16 165.807 20.2533 166.007 20.44C166.207 20.6267 166.307 20.86 166.307 21.14C166.307 21.4333 166.207 21.68 166.007 21.88C165.821 22.08 165.574 22.18 165.267 22.18Z" fill="#333333"/>
<line x1="1" y1="6.5" x2="44" y2="6.5" stroke="#333333"/>
<line x1="123" y1="6.5" x2="166" y2="6.5" stroke="#333333"/>
<path d="M60.148 13.078C58.9867 13.078 58.0723 12.7443 57.405 12.077C56.7377 11.4097 56.404 10.4217 56.404 9.113V3.9H57.366V9.074C57.366 10.1487 57.6087 10.9417 58.094 11.453C58.5793 11.9643 59.264 12.22 60.148 12.22C61.0407 12.22 61.7297 11.9643 62.215 11.453C62.7003 10.9417 62.943 10.1487 62.943 9.074V3.9H63.879V9.113C63.879 10.4217 63.5453 11.4097 62.878 12.077C62.2193 12.7443 61.3093 13.078 60.148 13.078ZM67.8599 13L71.5909 7.956V8.697L68.0809 3.9H69.1859L72.1369 7.904L71.7079 7.917L74.6589 3.9H75.6989L72.2279 8.632V7.956L75.9459 13H74.8279L71.6819 8.723H72.0849L68.9649 13H67.8599Z" fill="#333333"/>
<path d="M100.148 13.078C98.9867 13.078 98.0723 12.7443 97.405 12.077C96.7377 11.4097 96.404 10.4217 96.404 9.113V3.9H97.366V9.074C97.366 10.1487 97.6087 10.9417 98.094 11.453C98.5793 11.9643 99.264 12.22 100.148 12.22C101.041 12.22 101.73 11.9643 102.215 11.453C102.7 10.9417 102.943 10.1487 102.943 9.074V3.9H103.879V9.113C103.879 10.4217 103.545 11.4097 102.878 12.077C102.219 12.7443 101.309 13.078 100.148 13.078ZM109.248 13V3.9H110.21V13H109.248Z" fill="#333333"/>
<circle cx="86" cy="8" r="2" fill="#D10C0C"/>
</svg>
