<svg width="243" height="68" viewBox="0 0 243 68" fill="none" xmlns="http://www.w3.org/2000/svg">
<line y1="17.5" x2="70" y2="17.5" stroke="black"/>
<line x1="173" y1="17.5" x2="243" y2="17.5" stroke="black"/>
<path d="M93.83 9.44V8.6H99.65V9.44L98 9.65C97.68 9.69 97.49 9.78 97.43 9.92C97.37 10.04 97.34 10.44 97.34 11.12V22.07C97.34 24.47 96.83 26.28 95.81 27.5C94.81 28.7 93.27 29.3 91.19 29.3C88.77 29.3 86.82 28.64 85.34 27.32C83.86 26 83.12 24.1 83.12 21.62V11.12C83.12 10.44 83.09 10.04 83.03 9.92C82.97 9.78 82.78 9.69 82.46 9.65L80.81 9.44V8.6H89.03V9.44L87.38 9.65C87.06 9.69 86.87 9.78 86.81 9.92C86.75 10.04 86.72 10.44 86.72 11.12V21.83C86.72 24.07 87.13 25.69 87.95 26.69C88.77 27.69 89.94 28.19 91.46 28.19C92.94 28.19 94.09 27.72 94.91 26.78C95.73 25.82 96.14 24.27 96.14 22.13V11.12C96.14 10.44 96.11 10.04 96.05 9.92C95.99 9.78 95.8 9.69 95.48 9.65L93.83 9.44ZM101.798 9.44V8.6H110.018V9.44L108.368 9.65C108.048 9.69 107.858 9.78 107.798 9.92C107.738 10.04 107.708 10.44 107.708 11.12V26.48C107.708 27.16 107.738 27.57 107.798 27.71C107.858 27.83 108.048 27.91 108.368 27.95L110.018 28.16V29H101.798V28.16L103.448 27.95C103.768 27.91 103.958 27.83 104.018 27.71C104.078 27.57 104.108 27.16 104.108 26.48V11.12C104.108 10.44 104.078 10.04 104.018 9.92C103.958 9.78 103.768 9.69 103.448 9.65L101.798 9.44ZM121.038 6.8L122.208 7.25L111.828 33.29L110.658 32.84L121.038 6.8ZM136.34 9.44V8.6H142.16V9.44L140.51 9.65C140.19 9.69 140 9.78 139.94 9.92C139.88 10.04 139.85 10.44 139.85 11.12V22.07C139.85 24.47 139.34 26.28 138.32 27.5C137.32 28.7 135.78 29.3 133.7 29.3C131.28 29.3 129.33 28.64 127.85 27.32C126.37 26 125.63 24.1 125.63 21.62V11.12C125.63 10.44 125.6 10.04 125.54 9.92C125.48 9.78 125.29 9.69 124.97 9.65L123.32 9.44V8.6H131.54V9.44L129.89 9.65C129.57 9.69 129.38 9.78 129.32 9.92C129.26 10.04 129.23 10.44 129.23 11.12V21.83C129.23 24.07 129.64 25.69 130.46 26.69C131.28 27.69 132.45 28.19 133.97 28.19C135.45 28.19 136.6 27.72 137.42 26.78C138.24 25.82 138.65 24.27 138.65 22.13V11.12C138.65 10.44 138.62 10.04 138.56 9.92C138.5 9.78 138.31 9.69 137.99 9.65L136.34 9.44ZM148.958 28.16V29H143.048V28.16L144.698 27.95C144.898 27.91 145.048 27.87 145.148 27.83C145.268 27.77 145.398 27.65 145.538 27.47C145.698 27.27 145.918 26.94 146.198 26.48L150.728 19.28L146.288 11.12C146.048 10.66 145.868 10.34 145.748 10.16C145.628 9.96 145.508 9.83 145.388 9.77C145.288 9.71 145.128 9.67 144.908 9.65L143.258 9.44V8.6H151.838V9.44L150.188 9.65C149.888 9.69 149.738 9.78 149.738 9.92C149.738 10.04 149.918 10.44 150.278 11.12L153.278 16.64L156.728 11.12C157.148 10.44 157.358 10.04 157.358 9.92C157.378 9.78 157.228 9.69 156.908 9.65L155.258 9.44V8.6H161.168V9.44L159.518 9.65C159.318 9.67 159.158 9.71 159.038 9.77C158.938 9.83 158.818 9.96 158.678 10.16C158.538 10.34 158.318 10.66 158.018 11.12L153.878 17.75L158.588 26.48C158.828 26.92 159.008 27.24 159.128 27.44C159.248 27.64 159.368 27.77 159.488 27.83C159.608 27.87 159.768 27.91 159.968 27.95L161.618 28.16V29H153.068V28.16L154.718 27.95C155.038 27.91 155.198 27.83 155.198 27.71C155.198 27.57 155.008 27.16 154.628 26.48L151.298 20.36L147.488 26.48C147.068 27.16 146.848 27.57 146.828 27.71C146.828 27.83 146.988 27.91 147.308 27.95L148.958 28.16Z" fill="#333333"/>
<path d="M22.708 60.272V61H15.96V60.272L17.5 60.104C17.7987 60.0667 17.976 59.992 18.032 59.88C18.088 59.7493 18.116 59.3667 18.116 58.732V43.556L12.292 58.76H10.388L4.536 43.556V58.732C4.536 59.3667 4.564 59.7493 4.62 59.88C4.676 59.992 4.85333 60.0667 5.152 60.104L6.692 60.272V61H1.344V60.272L2.884 60.104C3.18267 60.0667 3.36 59.992 3.416 59.88C3.472 59.7493 3.5 59.3667 3.5 58.732V44.228C3.5 43.5933 3.472 43.22 3.416 43.108C3.36 42.9773 3.18267 42.8933 2.884 42.856L1.344 42.716V41.96H6.468L12.096 56.66L17.724 41.96H22.708V42.716L21.168 42.856C20.8693 42.8933 20.692 42.9773 20.636 43.108C20.58 43.22 20.552 43.5933 20.552 44.228V58.732C20.552 59.3667 20.58 59.7493 20.636 59.88C20.692 59.992 20.8693 60.0667 21.168 60.104L22.708 60.272ZM33.6658 44.004C33.2178 44.004 32.8445 43.864 32.5458 43.584C32.2658 43.2853 32.1258 42.9027 32.1258 42.436C32.1258 41.988 32.2658 41.624 32.5458 41.344C32.8445 41.064 33.2178 40.924 33.6658 40.924C34.1138 40.924 34.4778 41.064 34.7578 41.344C35.0565 41.624 35.2058 41.988 35.2058 42.436C35.2058 42.9027 35.0565 43.2853 34.7578 43.584C34.4778 43.864 34.1138 44.004 33.6658 44.004ZM30.3898 47.896V47.14H34.8418V58.732C34.8418 59.3853 34.8698 59.768 34.9258 59.88C34.9818 59.992 35.1592 60.0667 35.4578 60.104L36.9978 60.272V61H30.3898V60.272L31.9298 60.104C32.2285 60.0667 32.4058 59.992 32.4618 59.88C32.5178 59.768 32.5458 59.3853 32.5458 58.732V49.408C32.5458 48.7547 32.5178 48.372 32.4618 48.26C32.4058 48.148 32.2285 48.0733 31.9298 48.036L30.3898 47.896ZM62.2002 49.24L59.0643 61H57.2443L53.5762 49.436L49.9082 61H48.1722L45.0642 49.24C44.9336 48.6987 44.8216 48.372 44.7282 48.26C44.6536 48.148 44.4669 48.0733 44.1682 48.036L42.7402 47.896V47.14H49.0962V47.896L47.6402 48.036C47.3416 48.0733 47.1736 48.148 47.1362 48.26C47.1176 48.372 47.1829 48.6987 47.3322 49.24L49.7402 58.48L53.2963 47.14H55.1163L58.7282 58.648L61.1642 49.24C61.3136 48.6987 61.3696 48.372 61.3323 48.26C61.3136 48.148 61.1549 48.0733 60.8563 48.036L59.4003 47.896V47.14H64.5243V47.896L63.0963 48.036C62.8163 48.0733 62.6296 48.148 62.5363 48.26C62.4616 48.372 62.3496 48.6987 62.2002 49.24ZM82.0151 61.196C80.5591 61.196 79.7004 60.524 79.4391 59.18C78.7857 59.9267 78.0671 60.468 77.2831 60.804C76.4991 61.1213 75.7244 61.28 74.9591 61.28C73.6524 61.28 72.6911 60.916 72.0751 60.188C71.4591 59.46 71.1511 58.5827 71.1511 57.556C71.1511 56.4547 71.5244 55.5867 72.2711 54.952C73.0364 54.2987 74.3524 53.972 76.2191 53.972H79.3831V51.704C79.3831 50.2107 79.1217 49.184 78.5991 48.624C78.0951 48.0453 77.4044 47.756 76.5271 47.756C75.9671 47.756 75.4631 47.868 75.0151 48.092C74.5671 48.316 74.2404 48.7267 74.0351 49.324C73.8484 49.9027 73.8297 50.752 73.9791 51.872L71.7671 51.536C71.6737 50.6587 71.7857 49.8747 72.1031 49.184C72.4391 48.4747 72.9804 47.9147 73.7271 47.504C74.4924 47.0747 75.4444 46.86 76.5831 46.86C77.9457 46.86 78.9911 47.0933 79.7191 47.56C80.4471 48.008 80.9511 48.596 81.2311 49.324C81.5297 50.052 81.6791 50.8453 81.6791 51.704V58.004C81.6791 58.956 81.7817 59.5533 81.9871 59.796C82.2111 60.0387 82.4537 60.16 82.7151 60.16C82.8831 60.16 83.0604 60.1227 83.2471 60.048C83.4337 59.9547 83.6391 59.8147 83.8631 59.628L84.3671 60.328C84.0871 60.5707 83.7511 60.776 83.3591 60.944C82.9857 61.112 82.5377 61.196 82.0151 61.196ZM75.7431 60.104C76.2657 60.104 76.8257 59.964 77.4231 59.684C78.0391 59.3853 78.6924 58.7973 79.3831 57.92V54.868H76.5271C75.4817 54.868 74.7164 55.0827 74.2311 55.512C73.7644 55.9227 73.5311 56.5667 73.5311 57.444C73.5311 58.284 73.7084 58.9373 74.0631 59.404C74.4364 59.8707 74.9964 60.104 75.7431 60.104ZM102.948 42.688V41.96H109.696V42.688L108.156 42.856C107.857 42.8747 107.68 42.9493 107.624 43.08C107.568 43.192 107.54 43.5747 107.54 44.228V52.46L114.54 44.06C115.007 43.5187 115.24 43.192 115.24 43.08C115.259 42.9493 115.109 42.8747 114.792 42.856L113.364 42.688V41.96H118.684V42.688L117.256 42.856C117.069 42.8747 116.92 42.912 116.808 42.968C116.696 43.0053 116.565 43.108 116.416 43.276C116.285 43.4253 116.061 43.6867 115.744 44.06L111.376 49.324L116.696 58.732C116.939 59.1613 117.116 59.4693 117.228 59.656C117.359 59.8427 117.489 59.964 117.62 60.02C117.751 60.0573 117.928 60.0853 118.152 60.104L119.496 60.272V61H115.128L109.752 51.284L107.54 53.916V58.732C107.54 59.3853 107.568 59.768 107.624 59.88C107.68 59.992 107.857 60.0667 108.156 60.104L109.696 60.272V61H102.948V60.272L104.488 60.104C104.787 60.0667 104.964 59.992 105.02 59.88C105.076 59.768 105.104 59.3853 105.104 58.732V44.228C105.104 43.5747 105.076 43.192 105.02 43.08C104.964 42.9493 104.787 42.8747 104.488 42.856L102.948 42.688ZM137.459 61.196C136.003 61.196 135.145 60.524 134.883 59.18C134.23 59.9267 133.511 60.468 132.727 60.804C131.943 61.1213 131.169 61.28 130.403 61.28C129.097 61.28 128.135 60.916 127.519 60.188C126.903 59.46 126.595 58.5827 126.595 57.556C126.595 56.4547 126.969 55.5867 127.715 54.952C128.481 54.2987 129.797 53.972 131.663 53.972H134.827V51.704C134.827 50.2107 134.566 49.184 134.043 48.624C133.539 48.0453 132.849 47.756 131.971 47.756C131.411 47.756 130.907 47.868 130.459 48.092C130.011 48.316 129.685 48.7267 129.479 49.324C129.293 49.9027 129.274 50.752 129.423 51.872L127.211 51.536C127.118 50.6587 127.23 49.8747 127.547 49.184C127.883 48.4747 128.425 47.9147 129.171 47.504C129.937 47.0747 130.889 46.86 132.027 46.86C133.39 46.86 134.435 47.0933 135.163 47.56C135.891 48.008 136.395 48.596 136.675 49.324C136.974 50.052 137.123 50.8453 137.123 51.704V58.004C137.123 58.956 137.226 59.5533 137.431 59.796C137.655 60.0387 137.898 60.16 138.159 60.16C138.327 60.16 138.505 60.1227 138.691 60.048C138.878 59.9547 139.083 59.8147 139.307 59.628L139.811 60.328C139.531 60.5707 139.195 60.776 138.803 60.944C138.43 61.112 137.982 61.196 137.459 61.196ZM131.187 60.104C131.71 60.104 132.27 59.964 132.867 59.684C133.483 59.3853 134.137 58.7973 134.827 57.92V54.868H131.971C130.926 54.868 130.161 55.0827 129.675 55.512C129.209 55.9227 128.975 56.5667 128.975 57.444C128.975 58.284 129.153 58.9373 129.507 59.404C129.881 59.8707 130.441 60.104 131.187 60.104ZM155.605 58.144C155.325 59.2267 154.886 60.02 154.289 60.524C153.691 61.028 152.926 61.28 151.993 61.28C151.097 61.28 150.369 61.084 149.809 60.692C149.249 60.2813 148.838 59.7493 148.577 59.096C148.315 58.4427 148.185 57.7613 148.185 57.052V49.408C148.185 48.7547 148.157 48.372 148.101 48.26C148.063 48.148 147.886 48.0733 147.569 48.036L146.029 47.896V47.14H148.185V43.472L150.481 42.996V47.14H155.045V48.036H150.481V57.276C150.481 58.452 150.639 59.264 150.957 59.712C151.293 60.16 151.731 60.384 152.273 60.384C152.814 60.384 153.225 60.1787 153.505 59.768C153.803 59.3573 154.018 58.6853 154.149 57.752L155.605 58.144ZM174.049 61.196C172.593 61.196 171.734 60.524 171.473 59.18C170.819 59.9267 170.101 60.468 169.317 60.804C168.533 61.1213 167.758 61.28 166.993 61.28C165.686 61.28 164.725 60.916 164.109 60.188C163.493 59.46 163.185 58.5827 163.185 57.556C163.185 56.4547 163.558 55.5867 164.305 54.952C165.07 54.2987 166.386 53.972 168.253 53.972H171.417V51.704C171.417 50.2107 171.155 49.184 170.633 48.624C170.129 48.0453 169.438 47.756 168.561 47.756C168.001 47.756 167.497 47.868 167.049 48.092C166.601 48.316 166.274 48.7267 166.069 49.324C165.882 49.9027 165.863 50.752 166.013 51.872L163.801 51.536C163.707 50.6587 163.819 49.8747 164.137 49.184C164.473 48.4747 165.014 47.9147 165.761 47.504C166.526 47.0747 167.478 46.86 168.617 46.86C169.979 46.86 171.025 47.0933 171.753 47.56C172.481 48.008 172.985 48.596 173.265 49.324C173.563 50.052 173.713 50.8453 173.713 51.704V58.004C173.713 58.956 173.815 59.5533 174.021 59.796C174.245 60.0387 174.487 60.16 174.749 60.16C174.917 60.16 175.094 60.1227 175.281 60.048C175.467 59.9547 175.673 59.8147 175.897 59.628L176.401 60.328C176.121 60.5707 175.785 60.776 175.393 60.944C175.019 61.112 174.571 61.196 174.049 61.196ZM167.777 60.104C168.299 60.104 168.859 59.964 169.457 59.684C170.073 59.3853 170.726 58.7973 171.417 57.92V54.868H168.561C167.515 54.868 166.75 55.0827 166.265 55.512C165.798 55.9227 165.565 56.5667 165.565 57.444C165.565 58.284 165.742 58.9373 166.097 59.404C166.47 59.8707 167.03 60.104 167.777 60.104ZM196.002 62.624C196.002 64.1173 195.451 65.256 194.35 66.04C193.267 66.8427 191.755 67.244 189.814 67.244C187.686 67.244 186.127 66.8707 185.138 66.124C184.148 65.396 183.635 64.472 183.598 63.352L185.67 62.932C185.595 63.9587 185.866 64.78 186.482 65.396C187.116 66.0307 188.227 66.348 189.814 66.348C191.232 66.348 192.371 66.0867 193.23 65.564C194.107 65.0413 194.546 64.276 194.546 63.268C194.546 62.5213 194.294 61.9613 193.79 61.588C193.286 61.2147 192.455 61.028 191.298 61.028H187.966C186.715 61.028 185.838 60.7667 185.334 60.244C184.83 59.7027 184.578 59.1053 184.578 58.452C184.578 57.9107 184.708 57.4067 184.97 56.94C185.25 56.4547 185.688 55.9787 186.286 55.512C185.539 55.1573 184.932 54.644 184.466 53.972C183.999 53.2813 183.766 52.4507 183.766 51.48C183.766 50.4533 183.999 49.604 184.466 48.932C184.951 48.2413 185.586 47.728 186.37 47.392C187.172 47.0373 188.059 46.86 189.03 46.86H189.506C190.532 46.86 191.447 47.0467 192.25 47.42L196.31 46.02L196.618 48.12H193.342C193.771 48.4933 194.107 48.96 194.35 49.52C194.611 50.08 194.742 50.7333 194.742 51.48C194.742 52.4693 194.499 53.3093 194.014 54C193.547 54.6907 192.922 55.2133 192.138 55.568C191.354 55.904 190.476 56.072 189.506 56.072H189.03C188.712 56.072 188.404 56.0533 188.106 56.016C187.807 55.9787 187.518 55.9227 187.238 55.848C186.827 56.128 186.528 56.4173 186.342 56.716C186.174 57.0147 186.09 57.3227 186.09 57.64C186.09 58.0133 186.22 58.312 186.482 58.536C186.762 58.76 187.2 58.872 187.798 58.872H191.438C192.912 58.872 194.042 59.1893 194.826 59.824C195.61 60.4587 196.002 61.392 196.002 62.624ZM189.506 55.176C190.01 55.176 190.467 55.064 190.878 54.84C191.307 54.616 191.652 54.2427 191.914 53.72C192.175 53.1787 192.306 52.432 192.306 51.48C192.306 50.5093 192.175 49.7627 191.914 49.24C191.652 48.6987 191.307 48.316 190.878 48.092C190.467 47.868 190.01 47.756 189.506 47.756H189.03C188.526 47.756 188.059 47.868 187.63 48.092C187.2 48.316 186.855 48.6987 186.594 49.24C186.332 49.7627 186.202 50.5093 186.202 51.48C186.202 52.432 186.332 53.1787 186.594 53.72C186.855 54.2427 187.2 54.616 187.63 54.84C188.059 55.064 188.526 55.176 189.03 55.176H189.506ZM206.671 44.004C206.223 44.004 205.85 43.864 205.551 43.584C205.271 43.2853 205.131 42.9027 205.131 42.436C205.131 41.988 205.271 41.624 205.551 41.344C205.85 41.064 206.223 40.924 206.671 40.924C207.119 40.924 207.483 41.064 207.763 41.344C208.062 41.624 208.211 41.988 208.211 42.436C208.211 42.9027 208.062 43.2853 207.763 43.584C207.483 43.864 207.119 44.004 206.671 44.004ZM203.395 47.896V47.14H207.847V58.732C207.847 59.3853 207.875 59.768 207.931 59.88C207.987 59.992 208.164 60.0667 208.463 60.104L210.003 60.272V61H203.395V60.272L204.935 60.104C205.234 60.0667 205.411 59.992 205.467 59.88C205.523 59.768 205.551 59.3853 205.551 58.732V49.408C205.551 48.7547 205.523 48.372 205.467 48.26C205.411 48.148 205.234 48.0733 204.935 48.036L203.395 47.896ZM217.082 47.896V47.14H221.394V49.38C222.047 48.5027 222.701 47.868 223.354 47.476C224.026 47.0653 224.707 46.86 225.398 46.86C225.995 46.86 226.555 47.0373 227.078 47.392C227.601 47.7467 228.039 48.316 228.394 49.1L226.574 50.192C226.294 49.52 225.977 49.0533 225.622 48.792C225.267 48.5307 224.875 48.4 224.446 48.4C223.979 48.4 223.513 48.5493 223.046 48.848C222.598 49.1467 222.094 49.7067 221.534 50.528V58.732C221.534 59.3853 221.562 59.7773 221.618 59.908C221.674 60.02 221.851 60.0853 222.15 60.104L224.25 60.272V61H217.082V60.272L218.622 60.104C218.921 60.0667 219.098 59.992 219.154 59.88C219.21 59.768 219.238 59.3853 219.238 58.732V49.408C219.238 48.7547 219.21 48.372 219.154 48.26C219.098 48.148 218.921 48.0733 218.622 48.036L217.082 47.896ZM237.983 44.004C237.535 44.004 237.161 43.864 236.863 43.584C236.583 43.2853 236.443 42.9027 236.443 42.436C236.443 41.988 236.583 41.624 236.863 41.344C237.161 41.064 237.535 40.924 237.983 40.924C238.431 40.924 238.795 41.064 239.075 41.344C239.373 41.624 239.523 41.988 239.523 42.436C239.523 42.9027 239.373 43.2853 239.075 43.584C238.795 43.864 238.431 44.004 237.983 44.004ZM234.707 47.896V47.14H239.159V58.732C239.159 59.3853 239.187 59.768 239.243 59.88C239.299 59.992 239.476 60.0667 239.775 60.104L241.315 60.272V61H234.707V60.272L236.247 60.104C236.545 60.0667 236.723 59.992 236.779 59.88C236.835 59.768 236.863 59.3853 236.863 58.732V49.408C236.863 48.7547 236.835 48.372 236.779 48.26C236.723 48.148 236.545 48.0733 236.247 48.036L234.707 47.896Z" fill="#333333"/>
</svg>
