<svg width="175" height="41" viewBox="0 0 175 41" fill="none" xmlns="http://www.w3.org/2000/svg">
<path d="M1.64 35V20.4H6.16L9.5 28.6H9.88L13.18 20.4H17.78V35H14.54V22.54L15 22.58L11.14 32.04H8.02L4.14 22.58L4.64 22.54V35H1.64ZM23.9941 35V24.04H27.1941V35H23.9941ZM22.5341 26.4V24.04H27.1941V26.4H22.5341ZM25.2341 22.96C24.6341 22.96 24.1874 22.8067 23.8941 22.5C23.6141 22.18 23.4741 21.78 23.4741 21.3C23.4741 20.8067 23.6141 20.4067 23.8941 20.1C24.1874 19.78 24.6341 19.62 25.2341 19.62C25.8341 19.62 26.2741 19.78 26.5541 20.1C26.8474 20.4067 26.9941 20.8067 26.9941 21.3C26.9941 21.78 26.8474 22.18 26.5541 22.5C26.2741 22.8067 25.8341 22.96 25.2341 22.96ZM36.7738 35L38.7738 24.4H42.2738L44.5938 35H42.1138L39.7338 24.48H41.1538L39.0138 35H36.7738ZM36.0138 35L35.9938 32.34H38.1938L38.2138 35H36.0138ZM34.5738 35L31.6338 24.04H34.7738L37.5138 35H34.5738ZM42.9338 35L42.9538 32.34H45.1538V35H42.9338ZM43.8338 35L46.2738 24.04H49.2138L46.5738 35H43.8338ZM60.2355 35V31.76H59.6955V28.24C59.6955 27.68 59.5621 27.26 59.2955 26.98C59.0288 26.7 58.6021 26.56 58.0155 26.56C57.7221 26.56 57.3355 26.5667 56.8555 26.58C56.3755 26.5933 55.8821 26.6133 55.3755 26.64C54.8688 26.6667 54.4088 26.6933 53.9955 26.72V24.02C54.3021 23.9933 54.6621 23.9667 55.0755 23.94C55.4888 23.9133 55.9155 23.8933 56.3555 23.88C56.7955 23.8667 57.2088 23.86 57.5955 23.86C58.7155 23.86 59.6555 24.02 60.4155 24.34C61.1888 24.66 61.7755 25.1467 62.1755 25.8C62.5755 26.44 62.7755 27.2667 62.7755 28.28V35H60.2355ZM56.7355 35.28C55.9488 35.28 55.2555 35.14 54.6555 34.86C54.0688 34.58 53.6088 34.18 53.2755 33.66C52.9421 33.1267 52.7755 32.4933 52.7755 31.76C52.7755 30.96 52.9821 30.3067 53.3955 29.8C53.8088 29.28 54.3888 28.9 55.1355 28.66C55.8821 28.4067 56.7421 28.28 57.7155 28.28H60.0555V30.06H57.6955C57.1355 30.06 56.7021 30.2 56.3955 30.48C56.1021 30.7467 55.9555 31.1133 55.9555 31.58C55.9555 32.02 56.1021 32.38 56.3955 32.66C56.7021 32.9267 57.1355 33.06 57.6955 33.06C58.0555 33.06 58.3755 33 58.6555 32.88C58.9488 32.7467 59.1888 32.5267 59.3755 32.22C59.5621 31.9133 59.6688 31.4867 59.6955 30.94L60.4555 31.74C60.3888 32.5 60.2021 33.14 59.8955 33.66C59.6021 34.18 59.1888 34.58 58.6555 34.86C58.1355 35.14 57.4955 35.28 56.7355 35.28ZM84.6697 35L79.6297 28.18H77.6097L83.7297 20.4H87.4897L81.9897 27.38L81.9497 25.96L88.6297 35H84.6697ZM75.0697 35V20.4H78.3497V35H75.0697ZM99.0511 35V31.76H98.5111V28.24C98.5111 27.68 98.3778 27.26 98.1111 26.98C97.8444 26.7 97.4178 26.56 96.8311 26.56C96.5378 26.56 96.1511 26.5667 95.6711 26.58C95.1911 26.5933 94.6978 26.6133 94.1911 26.64C93.6844 26.6667 93.2244 26.6933 92.8111 26.72V24.02C93.1178 23.9933 93.4778 23.9667 93.8911 23.94C94.3044 23.9133 94.7311 23.8933 95.1711 23.88C95.6111 23.8667 96.0244 23.86 96.4111 23.86C97.5311 23.86 98.4711 24.02 99.2311 24.34C100.004 24.66 100.591 25.1467 100.991 25.8C101.391 26.44 101.591 27.2667 101.591 28.28V35H99.0511ZM95.5511 35.28C94.7644 35.28 94.0711 35.14 93.4711 34.86C92.8844 34.58 92.4244 34.18 92.0911 33.66C91.7578 33.1267 91.5911 32.4933 91.5911 31.76C91.5911 30.96 91.7978 30.3067 92.2111 29.8C92.6244 29.28 93.2044 28.9 93.9511 28.66C94.6978 28.4067 95.5578 28.28 96.5311 28.28H98.8711V30.06H96.5111C95.9511 30.06 95.5178 30.2 95.2111 30.48C94.9178 30.7467 94.7711 31.1133 94.7711 31.58C94.7711 32.02 94.9178 32.38 95.2111 32.66C95.5178 32.9267 95.9511 33.06 96.5111 33.06C96.8711 33.06 97.1911 33 97.4711 32.88C97.7644 32.7467 98.0044 32.5267 98.1911 32.22C98.3778 31.9133 98.4844 31.4867 98.5111 30.94L99.2711 31.74C99.2044 32.5 99.0178 33.14 98.7111 33.66C98.4178 34.18 98.0044 34.58 97.4711 34.86C96.9511 35.14 96.3111 35.28 95.5511 35.28ZM111.886 35.14C110.779 35.14 109.886 35.0067 109.206 34.74C108.526 34.46 108.026 34 107.706 33.36C107.399 32.7067 107.246 31.8267 107.246 30.72V21.08H110.226V30.84C110.226 31.36 110.359 31.76 110.626 32.04C110.906 32.3067 111.299 32.44 111.806 32.44H113.426V35.14H111.886ZM105.586 26.38V24.04H113.426V26.38H105.586ZM124.759 35V31.76H124.219V28.24C124.219 27.68 124.086 27.26 123.819 26.98C123.552 26.7 123.126 26.56 122.539 26.56C122.246 26.56 121.859 26.5667 121.379 26.58C120.899 26.5933 120.406 26.6133 119.899 26.64C119.392 26.6667 118.932 26.6933 118.519 26.72V24.02C118.826 23.9933 119.186 23.9667 119.599 23.94C120.012 23.9133 120.439 23.8933 120.879 23.88C121.319 23.8667 121.732 23.86 122.119 23.86C123.239 23.86 124.179 24.02 124.939 24.34C125.712 24.66 126.299 25.1467 126.699 25.8C127.099 26.44 127.299 27.2667 127.299 28.28V35H124.759ZM121.259 35.28C120.472 35.28 119.779 35.14 119.179 34.86C118.592 34.58 118.132 34.18 117.799 33.66C117.466 33.1267 117.299 32.4933 117.299 31.76C117.299 30.96 117.506 30.3067 117.919 29.8C118.332 29.28 118.912 28.9 119.659 28.66C120.406 28.4067 121.266 28.28 122.239 28.28H124.579V30.06H122.219C121.659 30.06 121.226 30.2 120.919 30.48C120.626 30.7467 120.479 31.1133 120.479 31.58C120.479 32.02 120.626 32.38 120.919 32.66C121.226 32.9267 121.659 33.06 122.219 33.06C122.579 33.06 122.899 33 123.179 32.88C123.472 32.7467 123.712 32.5267 123.899 32.22C124.086 31.9133 124.192 31.4867 124.219 30.94L124.979 31.74C124.912 32.5 124.726 33.14 124.419 33.66C124.126 34.18 123.712 34.58 123.179 34.86C122.659 35.14 122.019 35.28 121.259 35.28ZM136.934 39.36C136.401 39.36 135.854 39.34 135.294 39.3C134.734 39.26 134.221 39.2067 133.754 39.14V36.44C134.221 36.5067 134.734 36.56 135.294 36.6C135.867 36.6533 136.387 36.68 136.854 36.68C137.721 36.68 138.421 36.58 138.954 36.38C139.501 36.18 139.901 35.8733 140.154 35.46C140.407 35.06 140.534 34.54 140.534 33.9V31.72L141.114 30.44C141.087 31.4133 140.894 32.2467 140.534 32.94C140.187 33.6333 139.701 34.1667 139.074 34.54C138.447 34.9 137.701 35.08 136.834 35.08C136.087 35.08 135.407 34.9467 134.794 34.68C134.194 34.4 133.681 34.0133 133.254 33.52C132.827 33.0267 132.501 32.4533 132.274 31.8C132.047 31.1333 131.934 30.4133 131.934 29.64V29.18C131.934 28.4067 132.054 27.6867 132.294 27.02C132.534 26.3533 132.881 25.7733 133.334 25.28C133.787 24.7867 134.327 24.4067 134.954 24.14C135.581 23.86 136.274 23.72 137.034 23.72C137.914 23.72 138.674 23.9133 139.314 24.3C139.967 24.6867 140.481 25.2533 140.854 26C141.227 26.7467 141.427 27.6467 141.454 28.7L141.014 28.82V24.04H143.554V33.7C143.554 35.0467 143.314 36.1333 142.834 36.96C142.354 37.7867 141.621 38.3933 140.634 38.78C139.661 39.1667 138.427 39.36 136.934 39.36ZM137.834 32.38C138.327 32.38 138.774 32.2733 139.174 32.06C139.574 31.8333 139.887 31.5133 140.114 31.1C140.354 30.6867 140.474 30.1867 140.474 29.6V29.02C140.474 28.4467 140.347 27.9667 140.094 27.58C139.854 27.18 139.534 26.88 139.134 26.68C138.734 26.4667 138.307 26.36 137.854 26.36C137.321 26.36 136.847 26.4867 136.434 26.74C136.021 26.9933 135.701 27.3467 135.474 27.8C135.247 28.2533 135.134 28.7867 135.134 29.4C135.134 30.0267 135.247 30.5667 135.474 31.02C135.714 31.46 136.034 31.8 136.434 32.04C136.847 32.2667 137.314 32.38 137.834 32.38ZM149.445 35V24.04H152.645V35H149.445ZM147.985 26.4V24.04H152.645V26.4H147.985ZM150.685 22.96C150.085 22.96 149.638 22.8067 149.345 22.5C149.065 22.18 148.925 21.78 148.925 21.3C148.925 20.8067 149.065 20.4067 149.345 20.1C149.638 19.78 150.085 19.62 150.685 19.62C151.285 19.62 151.725 19.78 152.005 20.1C152.298 20.4067 152.445 20.8067 152.445 21.3C152.445 21.78 152.298 22.18 152.005 22.5C151.725 22.8067 151.285 22.96 150.685 22.96ZM158.205 35V24.04H160.745V28.74H160.685C160.685 27.1933 161.011 26 161.665 25.16C162.331 24.32 163.291 23.9 164.545 23.9H164.965V26.66H164.165C163.285 26.66 162.605 26.9 162.125 27.38C161.645 27.8467 161.405 28.5267 161.405 29.42V35H158.205ZM169.742 35V24.04H172.942V35H169.742ZM168.282 26.4V24.04H172.942V26.4H168.282ZM170.982 22.96C170.382 22.96 169.936 22.8067 169.642 22.5C169.362 22.18 169.222 21.78 169.222 21.3C169.222 20.8067 169.362 20.4067 169.642 20.1C169.936 19.78 170.382 19.62 170.982 19.62C171.582 19.62 172.022 19.78 172.302 20.1C172.596 20.4067 172.742 20.8067 172.742 21.3C172.742 21.78 172.596 22.18 172.302 22.5C172.022 22.8067 171.582 22.96 170.982 22.96Z" fill="#333333"/>
<line x1="1" y1="6.5" x2="47" y2="6.5" stroke="#333333"/>
<line x1="127" y1="6.5" x2="173" y2="6.5" stroke="#333333"/>
<path d="M68.135 12.234C67.277 12.234 66.5533 12.0693 65.964 11.74C65.3833 11.402 64.9413 10.934 64.638 10.336C64.3433 9.72933 64.196 9.02733 64.196 8.23V2.51H65.47V8.386C65.47 8.91467 65.5697 9.38267 65.769 9.79C65.977 10.1887 66.2803 10.5007 66.679 10.726C67.0777 10.9513 67.563 11.064 68.135 11.064C68.707 11.064 69.188 10.9557 69.578 10.739C69.9767 10.5137 70.2757 10.2017 70.475 9.803C70.683 9.39567 70.787 8.92333 70.787 8.386V2.51H72.061V8.23C72.061 9.02733 71.9137 9.72933 71.619 10.336C71.3243 10.934 70.8867 11.402 70.306 11.74C69.7253 12.0693 69.0017 12.234 68.135 12.234ZM75.8596 12L79.3956 6.93V7.164L76.1716 2.51H77.6146L80.0976 6.15H80.3056L82.8276 2.51H84.2056L80.8906 7.216L80.8776 6.982L84.4656 12H83.0226L80.1886 8.009H79.9806L77.2376 12H75.8596Z" fill="#333333"/>
<path d="M100.135 12.234C99.277 12.234 98.5533 12.0693 97.964 11.74C97.3833 11.402 96.9413 10.934 96.638 10.336C96.3433 9.72933 96.196 9.02733 96.196 8.23V2.51H97.47V8.386C97.47 8.91467 97.5697 9.38267 97.769 9.79C97.977 10.1887 98.2803 10.5007 98.679 10.726C99.0777 10.9513 99.563 11.064 100.135 11.064C100.707 11.064 101.188 10.9557 101.578 10.739C101.977 10.5137 102.276 10.2017 102.475 9.803C102.683 9.39567 102.787 8.92333 102.787 8.386V2.51H104.061V8.23C104.061 9.02733 103.914 9.72933 103.619 10.336C103.324 10.934 102.887 11.402 102.306 11.74C101.725 12.0693 101.002 12.234 100.135 12.234ZM109.132 12V2.51H110.406V12H109.132Z" fill="#333333"/>
<circle cx="90" cy="7" r="2" fill="#D10C0C"/>
</svg>
