<?xml version="1.0" encoding="UTF-8"?>
<svg id="_レイヤー_2" data-name="レイヤー 2" xmlns="http://www.w3.org/2000/svg" viewBox="0 0 104.15 128">
  <defs>
    <style>
      .cls-1 {
        fill: #fee330;
      }

      .cls-1, .cls-2 {
        stroke-width: 0px;
      }

      .cls-2 {
        fill: #fff;
      }
    </style>
  </defs>
  <g id="_1" data-name="1">
    <g>
      <path class="cls-2" d="m82.68,0h-45.82l-2.33,2.33L2.33,34.53l-2.33,2.33v69.67c0,11.84,9.63,21.47,21.47,21.47h61.2c11.84,0,21.47-9.63,21.47-21.47V21.47c0-11.84-9.63-21.47-21.47-21.47Zm13.52,106.53c0,7.47-6.05,13.52-13.52,13.52H21.47c-7.47,0-13.52-6.05-13.52-13.52V40.15h20.93c6.22,0,11.27-5.04,11.27-11.27V7.95h42.53c7.47,0,13.52,6.05,13.52,13.52v85.05Z"/>
      <path class="cls-1" d="m28.86,63.3c-1.27,0-2.22.91-2.22,2.37v5.86c0,.12-.06.18-.18.18h-6.75c-.12,0-.18-.06-.18-.18v-5.86c0-1.46-.94-2.37-2.22-2.37s-2.25.91-2.25,2.37v16.29c0,1.46.91,2.37,2.22,2.37s2.25-.91,2.25-2.37v-6.08c0-.12.06-.18.18-.18h6.75c.12,0,.18.06.18.18v6.08c0,1.46.94,2.37,2.22,2.37s2.25-.91,2.25-2.37v-16.29c0-1.46-.94-2.37-2.25-2.37Z"/>
      <path class="cls-1" d="m46.89,63.48h-11.82c-1.37,0-2.25.82-2.25,2.01s.88,1.97,2.25,1.97h3.49c.12,0,.18.06.18.18v14.31c0,1.43.94,2.37,2.22,2.37s2.25-.94,2.25-2.37v-14.31c0-.12.06-.18.18-.18h3.49c1.36,0,2.25-.82,2.25-1.97s-.88-2.01-2.25-2.01Z"/>
      <path class="cls-1" d="m67.64,63.3c-1.34,0-2.07.73-2.73,2.31l-4.31,9.97h-.12l-4.41-9.97c-.7-1.58-1.43-2.31-2.77-2.31-1.49,0-2.46,1.03-2.46,2.67v16.2c0,1.37.85,2.16,2.07,2.16s2.01-.79,2.01-2.16v-9.97h.15l3.22,7.41c.64,1.46,1.15,1.89,2.19,1.89s1.55-.43,2.19-1.89l3.19-7.41h.15v9.97c0,1.37.82,2.16,2.04,2.16s2.04-.79,2.04-2.16v-16.2c0-1.64-.94-2.67-2.43-2.67Z"/>
      <path class="cls-1" d="m85.41,80.16h-7.35c-.12,0-.18-.06-.18-.18v-14.31c0-1.43-.94-2.37-2.22-2.37s-2.25.94-2.25,2.37v16.22c0,1.34.88,2.25,2.25,2.25h9.75c1.37,0,2.25-.82,2.25-2.01s-.88-1.97-2.25-1.97Z"/>
    </g>
  </g>
</svg>