<?xml version="1.0" encoding="UTF-8"?>
<svg id="_レイヤー_2" data-name="レイヤー 2" xmlns="http://www.w3.org/2000/svg" viewBox="0 0 127.67 128">
  <defs>
    <style>
      .cls-1 {
        fill: #fee330;
      }

      .cls-1, .cls-2 {
        stroke-width: 0px;
      }

      .cls-2 {
        fill: #fff;
      }
    </style>
  </defs>
  <g id="_1" data-name="1">
    <g>
      <path class="cls-2" d="m41.04,37.79c-3.61,3.61-5.36,11.39-1.64,20,3.95,9.14,1.75,13.33-1.44,16.86-3.04,3.37-28.98,25.78-34.11,30.91-5.13,5.13-5.13,13.46,0,18.59,5.13,5.13,13.45,5.13,18.59,0,5.13-5.13,27.34-30.39,30.91-34.11,3.3-3.43,7.72-5.39,16.86-1.44,8.61,3.72,16.39,1.96,20-1.64l4.92-4.91-49.17-49.17-4.91,4.92Zm-24.44,80.52c-1.9,1.91-5,1.91-6.9,0s-1.91-5,0-6.9c1.91-1.91,5-1.91,6.9,0,1.91,1.91,1.91,5,0,6.9Z"/>
      <path class="cls-1" d="m125.1,39.91l-22.61-22.61c-.86-.86-2.19-1.02-3.22-.38l-11.69,7.11,6.95-11.92c.6-1.03.43-2.34-.41-3.18l-6.36-6.36c-1.78-1.78-4.25-2.71-6.77-2.55-2.52.16-4.84,1.4-6.38,3.41l-22.11,28.79,42.94,42.94,28.79-22.11c2-1.54,3.24-3.86,3.41-6.38.16-2.52-.77-4.98-2.55-6.77Z"/>
    </g>
  </g>
</svg>