<?xml version="1.0" encoding="UTF-8"?>
<svg id="_レイヤー_2" data-name="レイヤー 2" xmlns="http://www.w3.org/2000/svg" viewBox="0 0 128 128">
  <defs>
    <style>
      .cls-1 {
        fill: #fee330;
      }

      .cls-1, .cls-2 {
        stroke-width: 0px;
      }

      .cls-2 {
        fill: #fff;
      }
    </style>
  </defs>
  <g id="_1" data-name="1">
    <g>
      <path class="cls-2" d="m116,0H12C5.37,0,0,5.37,0,12v104c0,6.63,5.37,12,12,12h104c6.63,0,12-5.37,12-12V12c0-6.63-5.37-12-12-12Zm-4.83,8.75c2.62,0,4.75,2.13,4.75,4.75s-2.13,4.75-4.75,4.75-4.75-2.13-4.75-4.75,2.13-4.75,4.75-4.75Zm-17.62,0c2.62,0,4.75,2.13,4.75,4.75s-2.13,4.75-4.75,4.75-4.75-2.13-4.75-4.75,2.13-4.75,4.75-4.75Zm-17.62,0c2.62,0,4.75,2.13,4.75,4.75s-2.13,4.75-4.75,4.75-4.75-2.13-4.75-4.75,2.13-4.75,4.75-4.75Zm42.08,107.25c0,1.1-.9,2-2,2H12c-1.1,0-2-.9-2-2V26h108v90Z"/>
      <rect class="cls-2" x="24" y="48" width="38" height="8"/>
      <rect class="cls-2" x="24" y="88" width="82" height="8"/>
      <rect class="cls-1" x="76" y="48" width="30" height="30"/>
      <polygon class="cls-2" points="57.26 76 62 76 62 68 24 68 24 76 53.26 76 57.26 76"/>
    </g>
  </g>
</svg>